<svg width="137" height="47" viewBox="0 0 137 47" fill="none" xmlns="http://www.w3.org/2000/svg">
<path d="M11.8584 44.8052C11.8563 44.7747 11.8389 44.7452 11.8062 44.7167C11.7736 44.6883 11.742 44.6751 11.7115 44.6772C11.6504 44.6815 11.5882 44.6704 11.525 44.6441C11.4619 44.6177 11.3976 44.5761 11.3323 44.5192C11.267 44.4624 11.2028 44.4208 11.1396 44.3944C11.0764 44.3681 11.0143 44.357 10.9532 44.3612C10.8289 44.3391 10.7363 44.3302 10.6752 44.3344C10.6141 44.3386 10.5672 44.3265 10.5346 44.298C10.5019 44.2696 10.4835 44.2248 10.4793 44.1637C10.4751 44.1027 10.4261 44.06 10.3324 44.0358C10.2366 43.981 10.1123 43.9589 9.95958 43.9694C9.83741 43.9778 9.71735 44.0168 9.59939 44.0863C9.54041 44.121 9.48038 44.1405 9.4193 44.1447C9.32767 44.151 9.23394 44.1268 9.13811 44.072C8.97909 43.9909 8.75162 43.8071 8.4557 43.5206C8.39041 43.4638 8.32617 43.4222 8.26298 43.3958C8.22823 43.3368 8.19559 43.3084 8.16505 43.3105C8.07342 43.3168 7.52265 42.8945 6.51274 42.0434C6.34951 41.9013 6.15574 41.7612 5.93143 41.6232C5.73766 41.4831 5.54704 41.3888 5.35958 41.3404C4.85408 41.1297 4.40546 40.8537 4.01371 40.5125C3.61986 40.1407 3.38187 39.8042 3.29975 39.503C3.26289 39.4135 3.21182 39.3403 3.14653 39.2834C3.10968 39.1939 3.0586 39.1207 2.99331 39.0638C2.93012 39.0375 2.86588 38.9959 2.80059 38.939C2.7332 38.8516 2.68107 38.7631 2.64422 38.6736C2.60736 38.5841 2.55734 38.5261 2.49416 38.4998C2.42887 38.4429 2.38095 38.4155 2.35041 38.4176C2.31987 38.4197 2.27195 38.3924 2.20666 38.3355C2.1698 38.246 2.14822 38.1554 2.14191 38.0638C2.10085 37.9132 2.03029 37.7799 1.93025 37.6641C1.83021 37.5482 1.73228 37.4629 1.63644 37.4081C1.57115 37.3513 1.50796 37.3249 1.44688 37.3291L1.35525 37.3354C1.32471 37.3375 1.31049 37.3539 1.3126 37.3844L1.26679 37.3876C1.26468 37.357 1.2431 37.2665 1.20204 37.1158C1.15887 36.9347 1.09728 36.7088 1.01726 36.4381C0.969884 36.1959 0.924614 35.9842 0.881449 35.8031C0.86672 35.5893 0.858304 35.4671 0.8562 35.4366C0.937305 35.2775 0.958379 35.138 0.919421 35.0179C0.908901 34.8652 0.856776 34.7768 0.763047 34.7525C0.699859 34.7262 0.636672 34.6999 0.573485 34.6735C0.538735 34.6146 0.519256 34.5545 0.515048 34.4934C0.512944 34.4629 0.491361 34.3723 0.450299 34.2217C0.409237 34.0711 0.367123 33.9052 0.323957 33.7241C0.213396 33.4555 0.151803 33.2296 0.139179 33.0464C0.132867 32.9547 0.142878 32.8773 0.169211 32.8142C0.193441 32.7204 0.2024 32.6277 0.196088 32.5361C0.189776 32.4445 0.169245 32.3692 0.134495 32.3102C0.0997452 32.2512 0.0760582 32.1301 0.0634341 31.9469C0.052914 31.7942 0.0566126 31.6251 0.0745302 31.4398C0.0924477 31.2544 0.113521 31.1149 0.137751 31.0212C0.166189 30.9885 0.176199 30.9111 0.167783 30.7889C0.189909 30.6647 0.195712 30.5262 0.185191 30.3735C0.176775 30.2513 0.182578 30.1128 0.2026 29.958C0.222621 29.8032 0.260018 29.6779 0.314789 29.582C0.36956 29.4862 0.394842 29.4077 0.390634 29.3466C0.386426 29.2856 0.352728 29.2419 0.289541 29.2155C0.195812 29.1913 0.128416 29.1039 0.0873542 28.9533C0.0441883 28.7721 0.0162932 28.5899 0.00366911 28.4067C-0.00895511 28.2234 0.0110665 28.0686 0.0637338 27.9422C0.0879634 27.8485 0.111141 27.7395 0.133267 27.6152C0.18383 27.4583 0.203851 27.3035 0.193331 27.1508C0.211249 26.9654 0.23127 26.8106 0.253396 26.6864C0.273418 26.5316 0.296595 26.4226 0.322929 26.3594C0.40193 26.1698 0.451441 25.9976 0.471463 25.8428C0.491484 25.688 0.498339 25.5648 0.492027 25.4731L0.430434 25.2472C0.39358 25.1577 0.373049 25.0824 0.368841 25.0213C0.362529 24.9297 0.373592 24.8676 0.40203 24.8349C0.430468 24.8023 0.44153 24.7401 0.435218 24.6485C0.457344 24.5242 0.464199 24.401 0.455782 24.2789C0.447366 24.1567 0.424731 24.0509 0.387878 23.9613C0.381565 23.8697 0.363139 23.8249 0.332597 23.827L0.326285 23.7354C0.352618 23.6722 0.393171 23.5927 0.447942 23.4969C0.592235 23.3642 0.701777 23.1725 0.77657 22.9219C0.851363 22.6712 0.8835 22.4696 0.872979 22.3169C0.868771 22.2558 0.880886 22.2089 0.909324 22.1763C0.968303 22.1415 1.02728 22.1068 1.08626 22.072C1.17578 22.0352 1.21949 22.0015 1.21739 21.9709L1.16842 21.9283C1.13788 21.9304 1.12155 21.9162 1.11945 21.8856C1.11735 21.8551 1.16 21.8061 1.24742 21.7387C1.39171 21.606 1.52864 21.3664 1.65821 21.02C1.81831 20.6714 1.91944 20.3575 1.96158 20.0785C1.95317 19.9563 1.97424 19.8168 2.02481 19.6598C2.07326 19.4724 2.12278 19.3002 2.17334 19.1433C2.2239 18.9864 2.2634 18.8916 2.29184 18.8589C2.32028 18.8263 2.33239 18.7794 2.32819 18.7183C2.35452 18.6551 2.36558 18.593 2.36137 18.5319C2.35717 18.4708 2.38245 18.3924 2.43722 18.2966C2.48989 18.1702 2.55888 18.058 2.64419 17.9601C2.69896 17.8643 2.73951 17.7847 2.76585 17.7216C2.82272 17.6563 2.84906 17.5931 2.84485 17.532L2.84169 17.4862C2.83959 17.4556 2.83748 17.4251 2.83538 17.3946C2.86171 17.3314 2.90542 17.2977 2.96651 17.2935C2.99494 17.2608 3.02338 17.2282 3.05182 17.1955C3.08026 17.1629 3.09342 17.1313 3.09132 17.1007L3.04235 17.0581C3.04025 17.0275 3.03814 16.997 3.03604 16.9665C3.06448 16.9338 3.10924 16.9154 3.17032 16.9112C3.20086 16.9091 3.23035 16.8917 3.25879 16.8591C3.28723 16.8264 3.30039 16.7948 3.29829 16.7643C3.29619 16.7337 3.3104 16.7174 3.34095 16.7153C3.36938 16.6827 3.39887 16.6653 3.42942 16.6632C3.45996 16.6611 3.53315 16.61 3.64901 16.51C3.76486 16.4099 3.89389 16.2783 4.03607 16.1151C4.37733 15.7233 4.5448 15.4816 4.53848 15.39C4.53428 15.3289 4.48636 15.3015 4.39473 15.3078C4.36419 15.3099 4.34787 15.2957 4.34577 15.2652C4.34366 15.2346 4.35683 15.203 4.38527 15.1704C4.44214 15.1051 4.51218 15.0082 4.59539 14.8797C4.6786 14.7513 4.77708 14.6217 4.89083 14.4912C4.97194 14.3321 5.05515 14.2037 5.14046 14.1057C5.22577 14.0078 5.29897 13.9567 5.36005 13.9525C5.3906 13.9504 5.43431 13.9167 5.49118 13.8514C5.54806 13.7861 5.60493 13.7208 5.66181 13.6555C5.71868 13.5902 5.76134 13.5413 5.78978 13.5086C5.81611 13.4454 5.82822 13.3986 5.82612 13.368L5.82296 13.3222L5.90512 13.1785C5.95779 13.0521 6.041 12.9236 6.15475 12.793C6.37804 12.4708 6.78564 12.1512 7.37754 11.8342C7.61345 11.6952 7.80461 11.5747 7.95101 11.4725C8.12584 11.3377 8.21221 11.2551 8.2101 11.2245C8.208 11.194 8.22222 11.1776 8.25276 11.1755C8.2812 11.1429 8.31069 11.1255 8.34123 11.1234C8.40231 11.1192 8.47656 11.0834 8.56398 11.016C8.6514 10.9486 8.72249 10.867 8.77726 10.7712C8.83203 10.6753 8.85626 10.5816 8.84995 10.49C8.83733 10.3067 9.05902 10.1841 9.51505 10.122C9.63721 10.1135 9.74306 10.0909 9.83258 10.054C9.9221 10.0172 9.9953 9.96612 10.0522 9.90083C10.1112 9.86608 10.1549 9.83238 10.1833 9.79974C10.2423 9.76499 10.287 9.74656 10.3176 9.74446C10.4397 9.73604 10.5893 9.67971 10.7662 9.57546C10.9432 9.47121 11.1048 9.36801 11.2512 9.26587C11.4282 9.16162 11.544 9.06157 11.5988 8.96574C11.5967 8.9352 11.6251 8.90255 11.6841 8.8678C11.7715 8.80041 11.8447 8.74934 11.9037 8.71459C11.9932 8.67773 12.0522 8.64298 12.0807 8.61034C12.107 8.54715 12.1191 8.50028 12.117 8.46974L12.1138 8.42393L12.1565 8.37496C12.2155 8.34021 12.305 8.30336 12.4251 8.2644C12.5451 8.22544 12.6489 8.17227 12.7363 8.10487C12.8542 8.03537 12.9427 7.98325 13.0017 7.9485C13.0586 7.88321 13.1165 7.83318 13.1755 7.79843C13.2344 7.76369 13.2792 7.74526 13.3097 7.74315L13.4045 7.78265C13.4656 7.77845 13.5267 7.77424 13.5878 7.77003C13.6489 7.76582 13.6784 7.74845 13.6762 7.71791C13.7047 7.68526 13.7647 7.66578 13.8563 7.65947C13.9459 7.62262 14.0364 7.60103 14.1281 7.59472L14.2655 7.58525C14.4793 7.57052 14.7031 7.47839 14.9369 7.30885C15.2297 7.10456 15.5288 6.99189 15.8342 6.97085C16.0175 6.95823 16.1876 6.9772 16.3445 7.02776L16.4361 7.02145C16.5888 7.01093 16.7689 6.95249 16.9764 6.84614C17.1512 6.71135 17.2844 6.6408 17.3761 6.63448C17.4066 6.63238 17.4382 6.64555 17.4709 6.67398C17.534 6.70032 17.6125 6.7256 17.7062 6.74983C17.8305 6.77196 17.9548 6.79408 18.079 6.81621C18.2033 6.83833 18.3286 6.87573 18.455 6.9284C18.6119 6.97896 18.723 7.03268 18.7883 7.08955C18.8557 7.17697 18.92 7.21858 18.981 7.21437C19.0727 7.20806 19.149 7.2028 19.2101 7.19859L19.3934 7.18596C19.5155 7.17755 19.653 7.16808 19.8057 7.15756C19.9584 7.14704 20.0969 7.15284 20.2211 7.17497C20.3759 7.19499 20.5155 7.21606 20.6398 7.23819C20.7925 7.22767 20.8994 7.2203 20.9604 7.2161C21.0521 7.20978 21.1295 7.21979 21.1927 7.24613C21.2864 7.27036 21.3354 7.31301 21.3396 7.3741C21.3722 7.40253 21.4049 7.43097 21.4375 7.45941C21.4702 7.48785 21.517 7.49996 21.5781 7.49575C21.6697 7.48944 21.843 7.55422 22.0978 7.6901C22.3811 7.79333 22.6665 7.9271 22.954 8.09142C23.2415 8.25573 23.4821 8.40793 23.6759 8.54802C24.133 8.94614 24.4189 9.31003 24.5336 9.63968C24.6768 9.93668 24.7537 10.1615 24.7642 10.3142C24.7789 10.528 24.7447 10.6992 24.6615 10.8276C24.6046 10.8929 24.5499 10.9888 24.4972 11.1151C24.4751 11.2394 24.4682 11.3626 24.4766 11.4848C24.4892 11.6681 24.4671 11.7923 24.4102 11.8576C24.3534 11.9229 24.2344 11.9771 24.0532 12.0203C23.9331 12.0593 23.8294 12.1124 23.742 12.1798C23.6525 12.2167 23.5935 12.2514 23.5651 12.2841C23.5082 12.3494 23.3902 12.4189 23.2112 12.4926C23.0606 12.5336 22.91 12.5747 22.7594 12.6158C22.6067 12.6263 22.4692 12.6358 22.3471 12.6442L22.0722 12.6631C22.0111 12.6673 21.9205 12.6889 21.8005 12.7279C21.7109 12.7647 21.6214 12.8016 21.5319 12.8384C21.3244 12.9448 21.068 13.0085 20.7625 13.0295C20.6688 13.0053 20.5761 12.9963 20.4845 13.0026C20.3318 13.0132 20.2281 13.0663 20.1733 13.1622C20.147 13.2253 20.0738 13.2764 19.9537 13.3154C19.8642 13.3522 19.7736 13.3738 19.682 13.3801C19.5598 13.3885 19.4387 13.4122 19.3186 13.4512C19.1986 13.4901 19.0938 13.5281 19.0043 13.5649C18.9474 13.6302 18.86 13.6976 18.742 13.7671C18.6219 13.806 18.5019 13.845 18.3818 13.884C18.2944 13.9514 18.2212 14.0024 18.1622 14.0372C18.1032 14.0719 18.0748 14.1046 18.0769 14.1351C18.079 14.1657 18.019 14.1851 17.8968 14.1936C17.8052 14.1999 17.6983 14.2072 17.5761 14.2156C17.4824 14.1914 17.3897 14.1825 17.2981 14.1888C17.2065 14.1951 17.1312 14.2156 17.0722 14.2504C16.9521 14.2893 16.8047 14.3762 16.6298 14.511C16.5119 14.5805 16.3787 14.651 16.2302 14.7226C16.1122 14.7921 16.0074 14.83 15.9158 14.8364C15.6409 14.8553 15.3734 14.9811 15.1132 15.2139C14.8815 15.4139 14.7293 15.6546 14.6567 15.9358C14.6324 16.0295 14.5634 16.1416 14.4497 16.2722C14.3644 16.3702 14.2485 16.4702 14.1021 16.5724C13.9842 16.6419 13.8794 16.6798 13.7877 16.6861L13.7482 16.7809C13.6893 16.8156 13.6324 16.8809 13.5776 16.9767C13.5513 17.0399 13.4965 17.1357 13.4133 17.2642C13.3585 17.3601 13.2885 17.4569 13.2032 17.5549C13.1179 17.6528 13.0478 17.7497 12.993 17.8455C12.9383 17.9414 12.9119 18.0046 12.914 18.0351C12.9161 18.0656 12.8888 18.1136 12.8319 18.1789C12.8035 18.2115 12.7587 18.2299 12.6976 18.2341C12.6386 18.2689 12.5807 18.3189 12.5238 18.3842C12.4669 18.4495 12.4253 18.5137 12.399 18.5769C12.3727 18.6401 12.3179 18.7359 12.2347 18.8644C12.1515 18.9929 12.0683 19.1214 11.9851 19.2498C11.8471 19.4742 11.7823 19.6474 11.7907 19.7696L11.8033 19.9528L11.7544 19.9102C11.7238 19.9123 11.6649 19.947 11.5774 20.0144C11.5185 20.0492 11.4463 20.1155 11.361 20.2134C11.2757 20.3114 11.1904 20.4093 11.1051 20.5073C11.0176 20.5746 10.9444 20.6257 10.8855 20.6605C10.7675 20.73 10.7048 20.9338 10.6974 21.2718C10.708 21.4245 10.7011 21.5477 10.6769 21.6415C10.6832 21.7331 10.6711 21.78 10.6405 21.7821L10.6468 21.8737C10.6489 21.9042 10.6368 21.9511 10.6105 22.0143C10.5821 22.0469 10.5231 22.0817 10.4336 22.1185C10.3461 22.1859 10.275 22.2675 10.2203 22.3634C10.196 22.4571 10.175 22.5966 10.1571 22.782C10.1475 23.0895 10.1033 23.3381 10.0243 23.5276C9.97373 23.6845 9.89263 23.8436 9.78098 24.0047C9.66723 24.1353 9.61351 24.2464 9.61982 24.338C9.62614 24.4296 9.63034 24.4907 9.63245 24.5212C9.63876 24.6129 9.68983 24.6861 9.78567 24.7408L9.92626 24.7772C9.92836 24.8077 9.89993 24.8404 9.84095 24.8751C9.75353 24.9425 9.70928 25.1911 9.70819 25.6208C9.72082 25.804 9.71817 25.9883 9.70025 26.1737C9.68023 26.3285 9.65811 26.4527 9.63388 26.5465L9.65912 26.913C9.66964 27.0657 9.69438 27.2021 9.73334 27.3221C9.80284 27.4401 9.86813 27.497 9.92922 27.4928L10.0208 27.4864C10.0229 27.517 9.99451 27.5496 9.93553 27.5844C9.87655 27.6191 9.80756 27.7313 9.72856 27.9208C9.64745 28.0799 9.56845 28.2694 9.49155 28.4895C9.4431 28.677 9.42202 28.8165 9.42833 28.9082C9.43465 28.9998 9.42464 29.0772 9.3983 29.1404C9.40251 29.2015 9.38934 29.2331 9.3588 29.2352C9.32826 29.2373 9.29877 29.2546 9.27033 29.2873C9.27244 29.3178 9.27454 29.3484 9.27664 29.3789C9.27875 29.4095 9.2798 29.4247 9.2798 29.4247C9.31034 29.4226 9.34088 29.4205 9.37143 29.4184L9.41408 29.3694C9.44462 29.3673 9.46095 29.3816 9.46305 29.4121C9.46515 29.4426 9.45304 29.4895 9.42671 29.5527C9.43091 29.6138 9.43512 29.6749 9.43933 29.7359C9.44354 29.797 9.46091 29.8265 9.49146 29.8244C9.5241 29.8528 9.54148 29.8823 9.54358 29.9129C9.57623 29.9413 9.57938 29.9871 9.55305 30.0503C9.50038 30.1767 9.48246 30.362 9.4993 30.6064C9.51613 30.8507 9.5614 31.0624 9.63511 31.2414C9.70671 31.3899 9.74461 31.4947 9.74882 31.5558C9.78357 31.6148 9.802 31.6596 9.8041 31.6901L9.76776 31.8307C9.74353 31.9244 9.70613 32.0497 9.65557 32.2067C9.57446 32.3657 9.51179 32.5695 9.46754 32.818C9.45172 33.0339 9.44802 33.2029 9.45644 33.3251C9.46486 33.4473 9.47012 33.5236 9.47222 33.5542C9.47853 33.6458 9.49696 33.6906 9.5275 33.6884C9.55804 33.6863 9.59174 33.7301 9.62859 33.8196C9.69388 33.8764 9.74601 33.9649 9.78497 34.085C9.86288 34.3251 9.98135 34.4857 10.1404 34.5668C10.2036 34.5932 10.2678 34.6348 10.3331 34.6916L10.3821 34.7343C10.3842 34.7648 10.3873 34.8106 10.3915 34.8717C10.4263 34.9307 10.4468 35.006 10.4531 35.0976C10.4921 35.2177 10.6095 35.363 10.8054 35.5337C10.9991 35.6738 11.1929 35.8138 11.3867 35.9539C11.6089 36.0614 11.7811 36.1109 11.9032 36.1025C11.9338 36.1004 11.997 36.1267 12.0928 36.1815C12.2192 36.2341 12.3303 36.2878 12.4261 36.3426C12.5219 36.3974 12.6483 36.4501 12.8052 36.5006C12.9622 36.5512 13.1028 36.5875 13.227 36.6097C13.3513 36.6318 13.4613 36.6702 13.5572 36.725C13.6814 36.7471 13.7752 36.7714 13.8384 36.7977C13.8731 36.8567 13.9221 36.8993 13.9853 36.9257C14.0464 36.9214 14.1074 36.9172 14.1685 36.913C14.197 36.8804 14.2264 36.863 14.257 36.8609C14.2875 36.8588 14.3191 36.872 14.3518 36.9004C14.4781 36.9531 14.5893 37.0068 14.6851 37.0616C14.8441 37.1427 14.9552 37.1964 15.0184 37.2227C15.11 37.2164 15.1864 37.2112 15.2475 37.2069C15.3391 37.2006 15.4602 37.1769 15.6108 37.1359C15.7635 37.1254 15.8857 37.1169 15.9773 37.1106C16.0974 37.0717 16.1737 37.0664 16.2064 37.0949C16.2369 37.0928 16.2522 37.0917 16.2522 37.0917C16.2806 37.0591 16.2938 37.0275 16.2917 36.9969C16.3201 36.9643 16.3944 36.9285 16.5144 36.8895C16.6345 36.8506 16.7698 36.8105 16.9204 36.7695C17.1037 36.7569 17.2553 36.7311 17.3754 36.6921C17.4955 36.6532 17.5697 36.6174 17.5982 36.5847C17.6266 36.5521 17.6714 36.5336 17.7324 36.5294C17.7935 36.5252 17.8557 36.5363 17.9188 36.5626C17.982 36.5889 18.0747 36.5979 18.1969 36.5895C18.319 36.5811 18.4249 36.5584 18.5144 36.5216C18.6039 36.4847 18.7098 36.4621 18.8319 36.4537C18.9541 36.4453 19.061 36.4379 19.1526 36.4316L19.4733 36.4095L19.8335 36.2926C19.9209 36.2252 19.9952 36.1894 20.0563 36.1852C20.1458 36.1484 20.2058 36.1289 20.2363 36.1268L20.2853 36.1694L20.3769 36.1631C20.4075 36.161 20.4206 36.1294 20.4164 36.0683C20.4449 36.0357 20.5202 36.0152 20.6423 36.0067C20.7624 35.9678 20.9457 35.9552 21.1921 35.9689C21.3469 35.9889 21.4854 35.9947 21.6076 35.9863L21.745 35.9768C21.8366 35.9705 21.8967 35.951 21.9251 35.9184C22.0083 35.7899 22.1405 35.7041 22.3216 35.6609C22.5028 35.6177 22.6392 35.593 22.7308 35.5867C22.9446 35.572 23.1289 35.5746 23.2837 35.5946C23.6281 35.6937 23.894 35.7674 24.0814 35.8159C24.2973 35.8317 24.4522 35.8517 24.5459 35.8759C24.6375 35.8696 24.7444 35.8622 24.8666 35.8538C25.0804 35.8391 25.3168 35.9302 25.5759 36.1272C25.6738 36.2125 25.7717 36.2978 25.8697 36.3831C25.996 36.4358 26.0898 36.46 26.1509 36.4558C26.1835 36.4842 26.2172 36.528 26.2519 36.5869C26.3151 36.6133 26.3478 36.6417 26.3499 36.6722C26.3541 36.7333 26.3572 36.7791 26.3593 36.8097C26.392 36.8381 26.4389 36.8502 26.4999 36.846C26.7748 36.8271 26.9444 37.0609 27.0086 37.5475C27.0191 37.7002 27.0143 37.8539 26.9943 38.0087C26.9722 38.133 26.948 38.2267 26.9216 38.2899C26.8669 38.3858 26.8305 38.5264 26.8126 38.7117C26.7926 38.8665 26.7889 39.0356 26.8015 39.2188C26.7941 39.5569 26.7641 39.7891 26.7114 39.9155C26.6893 40.0397 26.6019 40.1071 26.4491 40.1177C26.3881 40.1219 26.3433 40.1403 26.3149 40.1729C26.2864 40.2056 26.2733 40.2372 26.2754 40.2677C26.2796 40.3288 26.2532 40.392 26.1964 40.4573C26.1374 40.492 26.0642 40.5431 25.9768 40.6105C25.8872 40.6474 25.7988 40.6995 25.7114 40.7669C25.6239 40.8343 25.5529 40.9159 25.4981 41.0117C25.4717 41.0749 25.4301 41.1391 25.3733 41.2044C25.3143 41.2392 25.2543 41.2587 25.1932 41.2629L25.0984 41.2234L24.9641 41.2787C24.8746 41.3155 24.7861 41.3676 24.6987 41.435C24.6397 41.4698 24.6113 41.5024 24.6134 41.533C24.6155 41.5635 24.5423 41.6146 24.3938 41.6862C24.2737 41.7251 24.0326 41.7878 23.6703 41.8741C23.5481 41.8825 23.4422 41.9052 23.3527 41.942C23.2632 41.9789 23.2042 42.0136 23.1758 42.0463C23.1474 42.0789 23.0884 42.1137 22.9989 42.1505C22.9093 42.1874 22.8035 42.21 22.6813 42.2184C22.5613 42.2574 22.4422 42.3116 22.3243 42.3811C22.2063 42.4506 22.1036 42.5191 22.0162 42.5865C21.7887 42.8476 21.3859 43.0135 20.8077 43.084C20.7182 43.1208 20.6308 43.1882 20.5454 43.2862C20.4601 43.3841 20.4196 43.4636 20.4238 43.5247C20.4259 43.5552 20.3822 43.5889 20.2927 43.6258C20.2337 43.6605 20.1584 43.6811 20.0667 43.6874C19.853 43.7021 19.7187 43.7574 19.6639 43.8532C19.6376 43.9164 19.5939 43.9501 19.5328 43.9543C19.5022 43.9564 19.4412 43.9606 19.3495 43.9669L19.1205 43.9827C18.874 43.969 18.6745 43.9674 18.5217 43.9779C18.3385 43.9906 18.0952 44.0227 17.7919 44.0742C17.6392 44.0848 17.5181 44.1085 17.4286 44.1453C17.3369 44.1516 17.2769 44.1711 17.2485 44.2037C17.2221 44.2669 17.1326 44.3038 16.9799 44.3143C16.7966 44.3269 16.6134 44.3396 16.4301 44.3522C16.2448 44.3343 16.1205 44.3121 16.0573 44.2858C15.9941 44.2595 15.9473 44.2474 15.9167 44.2495C15.8251 44.2558 15.7356 44.2926 15.6482 44.36C15.5608 44.4274 15.4417 44.4816 15.2911 44.5227C15.169 44.5311 15.001 44.5427 14.7872 44.5574C13.9868 44.5205 13.3575 44.5178 12.8994 44.5494C12.4413 44.5809 12.139 44.6478 11.9926 44.7499C11.9642 44.7826 11.9347 44.8 11.9042 44.8021C11.9042 44.8021 11.8889 44.8031 11.8584 44.8052Z" fill="#870327"/>
<path d="M37.769 46.7487L37.491 46.7218C37.3078 46.7344 37.0776 46.7349 36.8007 46.7233C36.5258 46.7422 36.2651 46.7449 36.0187 46.7311C35.7744 46.748 35.6064 46.7596 35.5148 46.7659C35.2968 46.7195 34.995 46.5715 34.6096 46.3219C34.2547 46.0702 33.9609 45.8142 33.7282 45.5541C33.6608 45.4667 33.5955 45.4098 33.5323 45.3834C33.4975 45.3245 33.4649 45.296 33.4344 45.2981L33.3885 45.3013C33.3275 45.3055 33.2806 45.2934 33.2479 45.2649C33.2437 45.2039 33.2395 45.1428 33.2353 45.0817C33.2311 45.0206 33.2106 44.9453 33.1737 44.8558C33.1369 44.7663 33.0858 44.6931 33.0205 44.6362C32.9205 44.5203 32.8662 44.4013 32.8578 44.2792L32.8515 44.1875C32.8799 44.1549 32.8921 44.108 32.8879 44.0469C32.8858 44.0164 32.8673 43.9716 32.8326 43.9127C32.8263 43.821 32.7894 43.7315 32.722 43.6441C32.583 43.4082 32.504 43.1528 32.4851 42.8779C32.4662 42.603 32.5115 42.3698 32.621 42.1781C32.6452 42.0844 32.6705 42.0059 32.6969 41.9427C32.7232 41.8795 32.7353 41.8327 32.7332 41.8021L32.6842 41.7595C32.5842 41.6436 32.5052 41.3882 32.4473 40.9933C32.441 40.9017 32.4215 40.8416 32.3889 40.8132C32.3847 40.7521 32.3673 40.7226 32.3368 40.7247L32.3305 40.6331C32.3263 40.572 32.3363 40.4946 32.3605 40.4009C32.3826 40.2766 32.3916 40.1839 32.3874 40.1228C32.3811 40.0312 32.3626 39.9865 32.3321 39.9886C32.2689 39.9622 32.2352 39.9185 32.231 39.8574C32.2289 39.8269 32.241 39.78 32.2673 39.7168C32.2916 39.6231 32.2942 39.4388 32.2753 39.1639C32.2848 38.8564 32.2759 38.5041 32.2485 38.1071L32.1791 37.0992C32.1622 36.8549 32.168 36.7164 32.1965 36.6837C32.2249 36.6511 32.2381 36.6195 32.236 36.589C32.2623 36.5258 32.2734 36.4636 32.2692 36.4026C32.265 36.3415 32.2771 36.2946 32.3055 36.262C32.3318 36.1988 32.3603 36.1661 32.3908 36.164C32.4519 36.1598 32.4814 36.1424 32.4793 36.1119L32.3845 36.0724C32.3171 35.985 32.2803 35.8955 32.274 35.8038L32.2676 35.7122C32.2613 35.6206 32.3182 35.5553 32.4383 35.5163C32.4972 35.4816 32.542 35.4632 32.5726 35.4611C32.601 35.4284 32.6142 35.3968 32.6121 35.3663C32.6099 35.3357 32.5926 35.3062 32.5599 35.2778C32.5557 35.2167 32.5178 35.1119 32.4462 34.9634C32.1924 34.3979 32.0582 34.0082 32.0435 33.7944C32.0393 33.7333 32.0514 33.6864 32.0798 33.6538C32.1082 33.6212 32.1325 33.5274 32.1525 33.3726C32.1725 33.2178 32.1915 33.0477 32.2094 32.8624C32.1968 32.6791 32.1852 32.5111 32.1747 32.3584C32.1926 32.1731 32.2147 32.0488 32.2411 31.9856C32.2348 31.894 32.2295 31.8176 32.2253 31.7565C32.219 31.6649 32.1842 31.6059 32.121 31.5796C32.0884 31.5512 32.071 31.5217 32.0689 31.4911C32.0647 31.4301 32.0615 31.3842 32.0594 31.3537C32.09 31.3516 32.1042 31.3353 32.1021 31.3047L32.0531 31.2621C32.0489 31.201 32.0131 31.1267 31.9457 31.0393C31.8783 30.9519 31.8415 30.8624 31.8352 30.7708C31.8267 30.6486 31.8631 30.508 31.9442 30.349C31.9663 30.2247 31.9884 30.1004 32.0106 29.9762C32.0306 29.8214 32.0385 29.7134 32.0343 29.6523C32.0301 29.5912 32.0259 29.5302 32.0217 29.4691C32.048 29.4059 32.0754 29.358 32.1038 29.3253C32.1017 29.2948 32.0975 29.2337 32.0912 29.1421C32.1154 29.0483 32.1244 28.9557 32.1181 28.864C32.1012 28.6197 32.1386 28.4944 32.2303 28.4881L32.3677 28.4786C32.3656 28.4481 32.3319 28.4044 32.2666 28.3475C32.2319 28.2885 32.2134 28.2437 32.2113 28.2132C32.2071 28.1521 32.2335 28.0889 32.2903 28.0236C32.3472 27.9583 32.3746 27.9104 32.3725 27.8799C32.3988 27.8167 32.4109 27.7698 32.4088 27.7393L32.4025 27.6477C32.4004 27.6171 32.4289 27.5845 32.4878 27.5497C32.5163 27.5171 32.5437 27.4692 32.57 27.406C32.6269 27.3407 32.6532 27.2775 32.649 27.2164C32.6448 27.1553 32.6537 27.0627 32.6759 26.9384C32.698 26.8141 32.7354 26.6888 32.7881 26.5624C32.806 26.3771 32.8118 26.2386 32.8055 26.147C32.7971 26.0248 32.7734 25.9037 32.7344 25.7836C32.6976 25.6941 32.6618 25.6198 32.627 25.5609C32.6228 25.4998 32.6196 25.454 32.6175 25.4234L32.6144 25.3776C32.6123 25.3471 32.607 25.2707 32.5986 25.1485C32.6186 24.9937 32.6376 24.8236 32.6555 24.6383C32.6734 24.4529 32.6903 24.2523 32.7061 24.0364C32.7219 23.8205 32.7409 23.6504 32.763 23.5262C32.783 23.3714 32.7899 23.2481 32.7836 23.1565C32.7773 23.0649 32.7731 23.0038 32.771 22.9733L32.7583 22.79C32.752 22.6984 32.7599 22.5904 32.782 22.4662C32.8284 22.2482 32.8463 22.0628 32.8358 21.9101C32.8274 21.7879 32.8047 21.6821 32.7679 21.5926C32.731 21.5031 32.7105 21.4277 32.7063 21.3667L32.6968 21.2292C32.719 21.105 32.7685 20.9328 32.8454 20.7127C32.8959 20.5557 32.9475 20.4141 33.0002 20.2877C33.0834 20.1592 33.1545 20.0776 33.2135 20.0429C33.2398 19.9797 33.2498 19.9023 33.2435 19.8107C33.2657 19.6864 33.2541 19.5184 33.2088 19.3067C33.1983 19.154 33.1846 18.9555 33.1678 18.7112C33.151 18.4668 33.1657 18.2357 33.2121 18.0177C33.2479 17.647 33.2574 17.3394 33.2406 17.0951C33.2174 16.7591 33.1548 16.518 33.0526 16.3716C33.0179 16.3126 32.9974 16.2373 32.991 16.1457C32.9826 16.0235 33.0016 15.8534 33.048 15.6354C33.1164 15.2931 33.2297 14.9324 33.3877 14.5533C33.4709 14.4248 33.5215 14.2679 33.5394 14.0826C33.5573 13.8972 33.5526 13.606 33.5252 13.209L33.4968 12.7967C33.4695 12.3996 33.4842 12.1684 33.5411 12.1032C33.7138 11.9378 33.8265 11.792 33.8792 11.6656C33.9624 11.5371 34.014 11.3955 34.034 11.2407C34.052 11.0553 34.0504 10.8099 34.0294 10.5045C34.0104 10.2296 33.9967 10.0311 33.9883 9.90894C33.9778 9.75623 33.9847 9.63301 34.0089 9.53928C34.0637 9.44345 34.1479 9.33024 34.2617 9.19966C35.1896 7.96964 35.8795 7.29304 36.3313 7.16985C36.4513 7.1309 36.5572 7.10826 36.6488 7.10195C36.7689 7.06299 36.8737 7.02508 36.9632 6.98823L37.0548 6.98192C37.356 6.8998 37.5524 6.85558 37.6441 6.84927C37.7357 6.84295 37.812 6.83769 37.8731 6.83348C37.9342 6.82928 37.9963 6.84034 38.0595 6.86667C38.1859 6.91934 38.3154 7.01782 38.4481 7.16211C38.4787 7.16001 38.495 7.17423 38.4971 7.20477C39.2153 7.8304 39.6144 8.27855 39.6944 8.54921C39.6986 8.6103 39.7202 8.70087 39.7592 8.82093C39.796 8.91045 39.8329 8.99998 39.8697 9.0895C39.9392 9.20746 39.9887 9.48023 40.0182 9.90781C40.0782 10.3333 40.1076 10.7609 40.1065 11.1906C40.1034 11.5897 40.0765 11.8677 40.0259 12.0247C39.9732 12.151 39.9543 12.3211 39.969 12.5349L39.9816 12.7182C40.0332 13.0215 40.109 13.2311 40.2091 13.3469C40.307 13.4322 40.3591 13.5207 40.3654 13.6123C40.3739 13.7345 40.3702 13.9035 40.3543 14.1194C40.3343 14.2742 40.3011 14.4606 40.2548 14.6786C40.2063 14.8661 40.1558 15.023 40.1031 15.1494C40.0546 15.3368 40.0225 15.5385 40.0067 15.7544C39.9909 15.9703 39.9945 16.2462 40.0177 16.5822C40.0366 16.8571 40.0534 17.1014 40.0682 17.3152C40.0829 17.529 40.1087 17.6806 40.1455 17.7702C40.1519 17.8618 40.1429 17.9545 40.1187 18.0482C40.1229 18.1093 40.1108 18.1561 40.0823 18.1888C40.0539 18.2214 40.0418 18.2683 40.046 18.3294C40.0481 18.3599 40.0655 18.3894 40.0981 18.4179C40.1023 18.4789 40.0812 18.6185 40.0349 18.8365C39.9864 19.0239 39.9227 19.2124 39.8437 19.402C39.7647 19.5916 39.6968 19.719 39.6399 19.7843L39.6462 19.8759C39.6504 19.937 39.6709 20.0123 39.7078 20.1018C39.7731 20.1587 39.8252 20.2472 39.8642 20.3672C39.901 20.4567 39.9215 20.5321 39.9258 20.5931C39.9321 20.6848 39.9384 20.7764 39.9447 20.868C39.9815 20.9575 40.0184 21.0471 40.0552 21.1366C40.0595 21.1977 40.0637 21.2587 40.0679 21.3198C40.07 21.3504 40.0558 21.3667 40.0252 21.3688C39.9947 21.3709 39.9652 21.3883 39.9368 21.4209C39.9083 21.4536 39.8951 21.4852 39.8973 21.5157C39.9015 21.5768 39.9199 21.6215 39.9525 21.65C39.9852 21.6784 40.0168 21.6916 40.0473 21.6895L40.0568 21.8269L40.1121 21.9612L40.082 22.1934C40.0925 22.3461 40.0878 22.4999 40.0678 22.6547C40.0783 22.8074 40.0867 22.9296 40.093 23.0212C40.0972 23.0823 40.0872 23.1597 40.063 23.2534L40.0693 23.345C40.0409 23.3777 40.0145 23.4409 39.9903 23.5346C39.9945 23.5957 40.0008 23.6873 40.0092 23.8095L40.0677 23.9896L40.0313 24.1302C40.0376 24.2218 40.0266 24.2839 39.9981 24.3166C40.0024 24.3777 39.9913 24.4398 39.965 24.503C39.9692 24.5641 39.9592 24.6415 39.9349 24.7352C39.9391 24.7963 39.9333 24.9348 39.9175 25.1507C39.9322 25.3645 39.9328 25.5946 39.919 25.841C39.9074 26.118 39.8948 26.3797 39.8811 26.6261C39.8674 26.8726 39.8647 27.0569 39.8731 27.179C39.851 27.3033 39.8278 27.4123 39.8036 27.506C39.8099 27.5977 39.7988 27.6598 39.7704 27.6925C39.7746 27.7535 39.7636 27.8157 39.7372 27.8789C39.7393 27.9094 39.7414 27.9399 39.7435 27.9705C39.7477 28.0316 39.7409 28.1548 39.723 28.3401C39.7335 28.4928 39.7308 28.6772 39.715 28.893L39.7561 29.4886C39.7666 29.6413 39.8045 29.7461 39.8698 29.803C40.0004 29.9167 40.0846 30.2485 40.1225 30.7982C40.1614 30.9183 40.184 31.0241 40.1904 31.1158C40.1967 31.2074 40.1867 31.2848 40.1603 31.348C40.1687 31.4702 40.1466 31.5944 40.094 31.7208C40.0697 31.8145 40.0018 31.942 39.8901 32.1031C39.8069 32.2316 39.7532 32.3427 39.729 32.4364C39.7026 32.4996 39.6905 32.5464 39.6926 32.577L39.6958 32.6228C39.7263 32.6207 39.7427 32.6349 39.7448 32.6655C39.7469 32.696 39.7195 32.7439 39.6626 32.8092C39.6036 32.844 39.5641 32.9387 39.5441 33.0936C39.5241 33.2484 39.5246 33.4785 39.5456 33.7839L39.593 34.4711C39.6077 34.6849 39.6324 34.8213 39.6672 34.8802L39.6735 34.9719C39.6819 35.094 39.6456 35.2346 39.5645 35.3936C39.457 35.6159 39.4059 35.9876 39.4111 36.5089C39.4259 36.7227 39.4417 36.9518 39.4585 37.1961C39.4732 37.4099 39.4685 37.5637 39.4442 37.6574C39.4569 37.8406 39.4848 38.0228 39.5279 38.204C39.569 38.3546 39.61 38.5052 39.6511 38.6558C39.7206 38.7738 39.7859 38.8306 39.847 38.8264C39.8775 38.8243 39.9223 38.8059 39.9813 38.7712C40.0402 38.7364 40.0982 38.6864 40.155 38.6211C40.2425 38.5537 40.3167 38.5179 40.3778 38.5137C40.4673 38.4768 40.5426 38.4563 40.6037 38.4521C40.6648 38.4479 40.7564 38.4416 40.8786 38.4332C40.9986 38.3942 41.1198 38.3705 41.2419 38.3621C41.421 38.2884 41.6316 38.2278 41.8738 38.1805C42.1466 38.131 42.3583 38.0857 42.5089 38.0447C42.57 38.0405 42.6627 38.0494 42.7869 38.0715C42.9417 38.0916 43.0966 38.1116 43.2514 38.1316C43.4062 38.1516 43.5152 38.1748 43.5784 38.2011C43.6394 38.1969 43.6853 38.1938 43.7158 38.1917C43.7463 38.1896 43.7606 38.1732 43.7585 38.1427C43.8132 38.0469 44.0544 37.9842 44.482 37.9548C44.6652 37.9421 44.8332 37.9306 44.9859 37.9201C45.1365 37.879 45.2261 37.8421 45.2545 37.8095C45.2829 37.7768 45.3561 37.7258 45.4741 37.6563C45.592 37.5868 45.7253 37.5162 45.8738 37.4446C46.0549 37.4015 46.2045 37.3451 46.3224 37.2756C46.4404 37.2061 46.5136 37.155 46.542 37.1224C46.5705 37.0898 46.7221 37.064 46.997 37.045C47.2698 36.9955 47.5752 36.9745 47.9133 36.9819C48.2492 36.9588 48.5262 36.9704 48.7442 37.0167C48.9927 37.061 49.1628 37.0799 49.2544 37.0736C49.3766 37.0652 49.4661 37.0284 49.523 36.9631C49.6999 36.8588 49.9543 36.7646 50.286 36.6804C50.6178 36.5961 50.9364 36.5435 51.2418 36.5225L51.5167 36.5035C51.7305 36.4888 51.9127 36.4609 52.0633 36.4198C52.2139 36.3788 52.3187 36.3409 52.3776 36.3061C52.4366 36.2714 52.5119 36.2508 52.6035 36.2445L52.741 36.2351C52.9263 36.253 53.2065 36.3104 53.5814 36.4073C53.8605 36.4495 54.109 36.4937 54.327 36.5401C54.5756 36.5843 54.7151 36.6054 54.7456 36.6033C54.8067 36.5991 54.8841 36.6091 54.9779 36.6333C55.0716 36.6575 55.1664 36.697 55.2622 36.7518C55.5192 36.9182 55.8003 36.9909 56.1058 36.9699C56.2279 36.9615 56.349 36.9378 56.4691 36.8988C56.5586 36.862 56.6339 36.8414 56.695 36.8372C57.0004 36.8162 57.3011 36.9489 57.597 37.2354C57.6623 37.2923 57.7276 37.3491 57.7929 37.406C57.8866 37.4302 57.9487 37.4413 57.9793 37.4392C58.0098 37.4371 58.0741 37.4787 58.172 37.564C58.2984 37.6167 58.4269 37.6999 58.5574 37.8136C58.7512 37.9537 58.8829 38.0828 58.9524 38.2007C59.0218 38.3187 59.064 38.4845 59.0787 38.6983C59.0871 38.8205 59.0824 38.9743 59.0644 39.1596C59.0771 39.3429 59.0734 39.5119 59.0533 39.6667C58.9786 39.9174 58.8427 40.1722 58.6457 40.4313C58.4772 40.6577 58.3166 40.7762 58.1639 40.7867C58.1333 40.7888 58.0743 40.8235 57.9869 40.8909C57.8974 40.9278 57.8089 40.9799 57.7215 41.0473C57.5488 41.2126 57.2039 41.3285 56.6868 41.3948C55.8053 41.5169 55.1886 41.6974 54.8369 41.9365C54.78 42.0018 54.7068 42.0528 54.6173 42.0897C54.5277 42.1265 54.4524 42.1471 54.3914 42.1513C54.2997 42.1576 54.2244 42.1781 54.1655 42.2129C54.1349 42.215 54.1054 42.2324 54.077 42.265C54.0485 42.2976 54.0191 42.315 53.9885 42.3171C53.958 42.3192 53.9274 42.3213 53.8969 42.3234L53.7594 42.3329C53.6984 42.3371 53.6373 42.3413 53.5762 42.3455C53.5151 42.3497 53.4704 42.3682 53.4419 42.4008C53.3545 42.4682 53.1307 42.5603 52.7705 42.6772C52.4409 42.792 52.0491 42.8957 51.5952 42.9883C51.3835 43.0336 51.2034 43.092 51.0549 43.1636C50.9043 43.2047 50.8148 43.2416 50.7863 43.2742C50.6747 43.4353 50.4661 43.5264 50.1607 43.5475C50.0975 43.5211 50.0201 43.5111 49.9285 43.5174C49.8369 43.5237 49.7605 43.529 49.6994 43.5332L49.4704 43.549C49.0428 43.5784 48.6968 43.679 48.4325 43.8506C48.2861 43.9528 48.1671 44.007 48.0754 44.0133C48.0449 44.0154 48.0133 44.0023 47.9807 43.9738L47.9317 43.9312C47.8706 43.9354 47.8127 43.9854 47.7579 44.0812C47.7031 44.1771 47.6452 44.2271 47.5841 44.2313C47.5536 44.2334 47.523 44.2355 47.4925 44.2376C47.4314 44.2418 47.354 44.2318 47.2603 44.2076C47.1055 44.1875 46.9833 44.196 46.8938 44.2328C46.8022 44.2391 46.67 44.325 46.4972 44.4903C46.3814 44.5903 46.2503 44.6914 46.1039 44.7936C45.9554 44.8652 45.8211 44.9204 45.701 44.9594C45.2208 45.1152 44.9838 45.239 44.9901 45.3306L44.9933 45.3764C44.9954 45.4069 44.9364 45.4417 44.8163 45.4807C44.6963 45.5196 44.5446 45.5454 44.3614 45.558C44.0254 45.5812 43.7658 45.5991 43.5825 45.6117C43.3993 45.6243 43.2619 45.6338 43.1702 45.6401C43.0807 45.6769 43.0217 45.7117 42.9933 45.7443C42.9649 45.777 42.9364 45.8096 42.908 45.8423C42.8532 45.9381 42.5204 46.0071 41.9096 46.0491C40.7795 46.127 40.1871 46.2138 40.1324 46.3097L40.0407 46.316C39.9818 46.3507 39.9217 46.3702 39.8606 46.3744C39.7996 46.3786 39.7242 46.3992 39.6347 46.436C39.5757 46.4708 39.532 46.5045 39.5036 46.5371C39.4752 46.5697 39.3693 46.5924 39.1861 46.605C39.0049 46.6482 38.8075 46.6771 38.5937 46.6918C38.382 46.7371 38.1998 46.765 38.0471 46.7755C37.8638 46.7882 37.7711 46.7792 37.769 46.7487Z" fill="#870327"/>
<path d="M71.9705 31.198C72.0175 31.3121 72.0437 31.4082 72.0491 31.486C72.0517 31.525 72.0558 31.5834 72.0611 31.6613C72.0638 31.7002 72.0289 31.7613 71.9564 31.8446C71.9201 31.8862 71.8865 31.9667 71.8557 32.0862C71.8248 32.2057 71.812 32.3044 71.8174 32.3823C71.8254 32.4991 71.814 32.6173 71.7831 32.7368C71.7522 32.8563 71.72 32.9564 71.6864 33.0369C71.6528 33.1175 71.6374 33.1772 71.6401 33.2162L71.6441 33.2746L71.6985 33.2121L71.7569 33.2081L71.7609 33.2665C71.7273 33.3471 71.6756 33.4485 71.6058 33.5707C71.4715 33.8929 71.4137 34.1903 71.4325 34.4629L71.4446 34.6382C71.4553 34.7939 71.5023 34.9081 71.5855 34.9806C71.6661 35.0142 71.7144 35.1478 71.7305 35.3814L71.8131 35.7278C71.8211 35.8447 71.8124 36.0018 71.7869 36.1992C71.8003 36.3939 71.7721 36.5523 71.7022 36.6745C71.6297 36.7577 71.6055 36.9746 71.6297 37.3251L71.6578 37.7339L71.7404 38.0804C71.7458 38.1583 71.7343 38.2764 71.7061 38.4349C71.7142 38.5517 71.7014 38.6504 71.6678 38.731C71.453 39.0196 71.2395 39.3278 71.0273 39.6554C70.8151 39.983 70.6768 40.2469 70.6123 40.4469C70.5451 40.6081 70.3444 40.8175 70.01 41.0753C69.7146 41.3304 69.3789 41.5687 69.0029 41.7903C68.6631 41.9702 68.3778 42.0876 68.1468 42.1427L67.9716 42.1548C67.8937 42.1601 67.7964 42.1668 67.6795 42.1749C67.56 42.144 67.4405 42.1131 67.321 42.0822C67.1988 42.0124 67.0975 41.9607 67.0169 41.9271C66.9337 41.8546 66.8907 41.7988 66.888 41.7599C66.8853 41.721 66.8437 41.6847 66.7631 41.6511C66.6826 41.6175 66.5825 41.5853 66.463 41.5544C66.3435 41.5235 66.2213 41.4537 66.0965 41.3449C65.9716 41.2361 65.8454 41.1079 65.7178 40.9602C65.6292 40.8098 65.5225 40.6802 65.3976 40.5714C65.3117 40.46 65.2284 40.3875 65.1479 40.3539C64.9451 40.2505 64.7759 40.0665 64.6403 39.802C64.5517 39.6516 64.5021 39.4985 64.4913 39.3427C64.4833 39.2259 64.4947 39.1077 64.5256 38.9882C64.5538 38.8298 64.5444 38.6935 64.4974 38.5794C64.4867 38.4236 64.4176 38.2719 64.29 38.1241C64.1128 37.8233 64.0121 37.4977 63.988 37.1472L63.8914 35.7454C63.8726 35.4728 63.78 35.264 63.6135 35.119C63.5329 35.0854 63.4886 35.0102 63.4806 34.8934L63.4484 34.4261C63.4941 33.9534 63.5088 33.6003 63.4928 33.3666C63.4767 33.133 63.4216 32.902 63.3276 32.6737C63.2364 32.4844 63.1853 32.3119 63.1746 32.1561C63.1639 32.0003 63.2089 31.8016 63.3096 31.5599C63.3687 31.282 63.3929 31.0651 63.3822 30.9093C63.3714 30.7536 63.2983 30.5434 63.1627 30.2789C63.019 29.8975 62.9418 29.629 62.9311 29.4732L62.919 29.298C62.911 29.1812 62.9405 29.0422 63.0077 28.881C63.0721 28.681 63.0977 28.4836 63.0843 28.2889C63.1071 28.0526 63.0729 27.8397 62.9816 27.6504L62.9735 27.5336C62.9709 27.4946 62.9682 27.4557 62.9655 27.4167C62.9601 27.3389 62.9756 27.2791 63.0118 27.2375C63.0817 27.1153 63.1293 26.9555 63.1549 26.7581C63.1777 26.5218 63.1824 26.3063 63.169 26.1116C63.1529 25.8779 63.1032 25.7249 63.02 25.6523C62.9757 25.5771 62.9509 25.5006 62.9455 25.4227C62.9428 25.3838 62.9401 25.3448 62.9374 25.3059C62.9321 25.228 62.9616 25.089 63.0261 24.889C63.0933 24.7279 63.1423 24.5875 63.1732 24.468C63.2014 24.3096 63.2128 24.1914 63.2074 24.1135C63.2021 24.0357 63.1954 23.9383 63.1873 23.8215C63.1766 23.6657 63.1853 23.5086 63.2135 23.3502C63.2444 23.2307 63.2545 23.093 63.2438 22.9373C63.2693 22.7399 63.2975 22.5814 63.3284 22.4619C63.323 22.3841 63.3358 22.2854 63.3667 22.1659C63.4365 22.0437 63.4896 21.9618 63.5258 21.9201C63.6735 21.7926 63.73 21.4757 63.6951 20.9695C63.679 20.7358 63.6851 20.5398 63.7133 20.3813C63.7388 20.1839 63.7892 20.0631 63.8644 20.0188C63.8979 19.9382 63.9315 19.8577 63.9651 19.7771C63.9987 19.6965 64.0114 19.5978 64.0034 19.481C63.998 19.4031 64.0121 19.3239 64.0457 19.2434C64.0793 19.1628 64.1142 19.1017 64.1504 19.0601C64.2283 19.0547 64.2854 19.0312 64.3217 18.9896C64.3942 18.9063 64.4277 18.8258 64.4224 18.7479C64.6856 18.0255 65.2973 17.5334 66.2574 17.2717C66.4884 17.2166 66.7012 17.1824 66.8959 17.169C67.5968 17.1207 68.2333 17.2725 68.8053 17.6243C68.9302 17.7331 69.0953 17.8587 69.3007 18.001C69.5035 18.1044 69.7076 18.2273 69.913 18.3697L70.5837 18.7343L70.5192 19.5017C70.5326 19.6964 70.546 19.8911 70.5594 20.0858C70.5728 20.2805 70.6017 20.4154 70.646 20.4906C70.6903 20.5658 70.7165 20.6618 70.7245 20.7786C70.7688 20.8538 70.8145 20.9485 70.8615 21.0627C70.8668 21.1405 70.893 21.2365 70.94 21.3507C70.987 21.4648 71.0313 21.54 71.0729 21.5763C71.1172 21.6515 71.1434 21.7475 71.1515 21.8643C71.1568 21.9422 71.1286 22.1006 71.0668 22.3397C71.0413 22.537 70.9574 22.7384 70.815 22.9439C70.7788 22.9855 70.766 23.0842 70.7767 23.24C70.7848 23.3568 70.8136 23.4917 70.8633 23.6448C70.874 23.8006 70.8861 23.9758 70.8995 24.1705C70.9492 24.3236 70.9975 24.4572 71.0445 24.5713C71.0526 24.6882 71.0801 24.8036 71.1271 24.9178C71.1741 25.0319 71.2392 25.1253 71.3224 25.1978C71.364 25.234 71.4097 25.3287 71.4594 25.4818C71.5064 25.5959 71.5392 25.7893 71.558 26.0619C71.5768 26.3344 71.6023 26.7044 71.6345 27.1717C71.6693 27.6779 71.6821 28.1465 71.6726 28.5776C71.6605 28.9696 71.6571 29.2046 71.6625 29.2825C71.6289 29.3631 71.6135 29.4228 71.6162 29.4618C71.6215 29.5397 71.6437 29.5773 71.6826 29.5746C71.7216 29.5719 71.7451 29.629 71.7531 29.7458L71.8236 29.917L71.7813 30.1547C71.7947 30.3494 71.8081 30.5441 71.8215 30.7388C71.8739 30.9308 71.9235 31.0839 71.9705 31.198ZM62.1551 9.69004C62.1162 9.69272 62.0772 9.69541 62.0383 9.69809C61.9967 9.66183 61.9537 9.6061 61.9094 9.53091C61.8624 9.41677 61.8362 9.32076 61.8309 9.24287C61.8591 9.08443 61.9249 8.90383 62.0283 8.70108C62.129 8.45939 62.2351 8.29558 62.3466 8.20965C62.3828 8.16802 62.4177 8.10693 62.4513 8.02637C62.4822 7.90686 62.495 7.80817 62.4896 7.73029C62.4816 7.61346 62.493 7.4953 62.5239 7.3758C62.5521 7.21735 62.5816 7.07838 62.6125 6.95887C62.685 6.87563 62.7535 6.73397 62.818 6.5339C62.8825 6.33383 62.9275 6.1351 62.953 5.93772C63.0537 5.69602 63.1403 5.53356 63.2129 5.45031C63.2827 5.32812 63.376 5.263 63.4928 5.25496C63.6097 5.24691 63.707 5.2402 63.7849 5.23484C63.8601 5.19053 63.8964 5.14891 63.8937 5.10997C63.9635 4.98778 64.0736 4.88238 64.224 4.79377C64.4134 4.70247 64.5846 4.63199 64.7376 4.58232L64.9129 4.57025C64.9908 4.56488 65.0505 4.58033 65.0921 4.61659C65.1727 4.65016 65.2519 4.66427 65.3298 4.6589C65.4466 4.65085 65.5426 4.62468 65.6178 4.58037C65.7682 4.49176 65.92 4.42262 66.0731 4.37295C66.2651 4.32059 66.4014 4.3112 66.4819 4.34478C66.5988 4.33673 66.6598 4.37165 66.6652 4.44953L66.6692 4.50794L66.9613 4.48782C67.1949 4.47172 67.4964 4.5879 67.8656 4.83634C68.2349 5.08478 68.5457 5.33724 68.7981 5.59373C69.0895 5.84754 69.26 6.05098 69.3097 6.20406L69.3137 6.26247C69.3191 6.34035 69.3426 6.39742 69.3842 6.43368C69.3895 6.51156 69.4144 6.5881 69.4587 6.6633C69.5003 6.69956 69.5627 6.75395 69.646 6.82646C69.7709 6.93524 69.8387 7.06751 69.8494 7.22327L69.8695 7.51532C69.8722 7.55426 69.893 7.57239 69.9319 7.56971C69.9709 7.56703 70.0374 7.67983 70.1313 7.90811C70.2253 8.13638 70.3011 8.38547 70.3589 8.65538C70.4555 8.9226 70.5106 9.15356 70.524 9.34826C70.5401 9.5819 70.5159 9.79876 70.4514 9.99883C70.387 10.1989 70.3158 10.3016 70.2379 10.307L70.1835 10.3694C70.1499 10.45 70.1345 10.5097 70.1372 10.5487C70.1425 10.6266 70.1103 10.7266 70.0405 10.8488C69.9706 10.971 69.8813 11.0945 69.7726 11.2194C69.6611 11.3053 69.5705 11.4093 69.5006 11.5315C69.4697 11.651 69.4556 11.7303 69.4583 11.7692L69.5207 11.8236L69.4623 11.8276C69.4261 11.8692 69.3885 11.8914 69.3495 11.8941C69.2716 11.8994 69.1951 11.9243 69.1199 11.9686C69.0447 12.0129 68.9903 12.0753 68.9568 12.1559C68.9205 12.1975 68.8466 12.2613 68.7352 12.3472C68.621 12.3942 68.5056 12.4217 68.3887 12.4298C68.2746 12.4768 68.1605 12.5237 68.0463 12.5707C67.9295 12.5788 67.853 12.6036 67.8167 12.6452C67.6663 12.7339 67.4353 12.7889 67.1238 12.8104C66.8123 12.8318 66.5384 12.8311 66.302 12.8083C66.2215 12.7747 66.1228 12.7619 66.006 12.77C65.8865 12.7391 65.7696 12.7471 65.6555 12.7941C65.5776 12.7995 65.4997 12.8049 65.4218 12.8102C65.344 12.8156 65.2842 12.8001 65.2426 12.7639L65.1802 12.7095C65.0996 12.6759 65.0204 12.6618 64.9425 12.6672C64.8257 12.6752 64.6464 12.6289 64.4047 12.5282C64.163 12.4274 63.9213 12.3267 63.6796 12.226C63.4353 12.0863 63.2701 11.9608 63.1842 11.8493C63.1009 11.7768 63.0372 11.7029 62.9929 11.6277C62.9485 11.5525 62.9251 11.4955 62.9224 11.4565C62.917 11.3786 62.8935 11.3216 62.8519 11.2853C62.8103 11.2491 62.77 11.2323 62.731 11.2349L62.6726 11.239L62.6646 11.1221L62.719 11.0597C62.7163 11.0208 62.6941 10.9832 62.6525 10.9469C62.6498 10.908 62.6263 10.8509 62.582 10.7757C62.5404 10.7395 62.4974 10.6837 62.4531 10.6085L62.4008 9.84918C62.3538 9.73504 62.3109 9.67931 62.2719 9.68199L62.1551 9.69004Z" fill="#870327"/>
<path d="M91.0202 39.3517C91.0181 39.3212 91.0007 39.2917 90.9681 39.2633C90.9354 39.2348 90.9038 39.2217 90.8733 39.2238C90.8122 39.228 90.7501 39.2169 90.6869 39.1906C90.6237 39.1642 90.5595 39.1226 90.4942 39.0658C90.4289 39.0089 90.3646 38.9673 90.3014 38.941C90.2383 38.9146 90.1761 38.9036 90.115 38.9078C89.9908 38.8856 89.8981 38.8767 89.837 38.8809C89.7759 38.8851 89.729 38.873 89.6964 38.8445C89.6638 38.8161 89.6453 38.7713 89.6411 38.7103C89.6369 38.6492 89.588 38.6065 89.4942 38.5823C89.3984 38.5275 89.2741 38.5054 89.1214 38.5159C88.9992 38.5243 88.8792 38.5633 88.7612 38.6328C88.7022 38.6675 88.6422 38.687 88.5811 38.6912C88.4895 38.6975 88.3958 38.6733 88.2999 38.6185C88.1409 38.5374 87.9134 38.3536 87.6175 38.0672C87.5522 38.0103 87.488 37.9687 87.4248 37.9423C87.3901 37.8834 87.3574 37.8549 87.3269 37.857C87.2353 37.8633 86.6845 37.441 85.6746 36.59C85.5113 36.4478 85.3176 36.3077 85.0933 36.1697C84.8995 36.0296 84.7089 35.9353 84.5214 35.8869C84.0159 35.6762 83.5673 35.4003 83.1755 35.059C82.7817 34.6872 82.5437 34.3507 82.4616 34.0495C82.4247 33.96 82.3736 33.8868 82.3084 33.8299C82.2715 33.7404 82.2204 33.6672 82.1551 33.6103C82.092 33.584 82.0277 33.5424 81.9624 33.4855C81.895 33.3981 81.8429 33.3096 81.806 33.2201C81.7692 33.1306 81.7192 33.0726 81.656 33.0463C81.5907 32.9894 81.5428 32.962 81.5122 32.9642C81.4817 32.9663 81.4338 32.9389 81.3685 32.882C81.3316 32.7925 81.3101 32.7019 81.3037 32.6103C81.2627 32.4597 81.1921 32.3264 81.0921 32.2106C80.992 32.0947 80.8941 32.0094 80.7983 31.9546C80.733 31.8978 80.6698 31.8714 80.6087 31.8756L80.5171 31.882C80.4865 31.8841 80.4723 31.9004 80.4744 31.9309L80.4286 31.9341C80.4265 31.9035 80.4049 31.813 80.3639 31.6624C80.3207 31.4812 80.2591 31.2553 80.1791 30.9846C80.1317 30.7424 80.0864 30.5307 80.0433 30.3496C80.0285 30.1358 80.0201 30.0136 80.018 29.9831C80.0991 29.8241 80.1202 29.6845 80.0812 29.5645C80.0707 29.4117 80.0186 29.3233 79.9249 29.299C79.8617 29.2727 79.7985 29.2464 79.7353 29.22C79.7006 29.1611 79.6811 29.101 79.6769 29.04C79.6748 29.0094 79.6532 28.9188 79.6121 28.7682C79.5711 28.6176 79.529 28.4518 79.4858 28.2706C79.3752 28.002 79.3136 27.7761 79.301 27.5929C79.2947 27.5013 79.3047 27.4239 79.331 27.3607C79.3553 27.2669 79.3642 27.1743 79.3579 27.0826C79.3516 26.991 79.3311 26.9157 79.2963 26.8567C79.2616 26.7978 79.2379 26.6766 79.2253 26.4934C79.2147 26.3407 79.2184 26.1716 79.2364 25.9863C79.2543 25.8009 79.2754 25.6614 79.2996 25.5677C79.328 25.535 79.338 25.4576 79.3296 25.3354C79.3517 25.2112 79.3575 25.0727 79.347 24.92C79.3386 24.7978 79.3444 24.6593 79.3644 24.5045C79.3845 24.3497 79.4218 24.2244 79.4766 24.1285C79.5314 24.0327 79.5567 23.9542 79.5525 23.8932C79.5483 23.8321 79.5146 23.7884 79.4514 23.762C79.3576 23.7378 79.2902 23.6504 79.2492 23.4998C79.206 23.3186 79.1781 23.1364 79.1655 22.9532C79.1529 22.7699 79.1729 22.6151 79.2256 22.4888C79.2498 22.395 79.273 22.286 79.2951 22.1618C79.3457 22.0048 79.3657 21.85 79.3552 21.6973C79.3731 21.512 79.3931 21.3572 79.4152 21.2329C79.4352 21.0781 79.4584 20.9691 79.4848 20.9059C79.5638 20.7163 79.6133 20.5441 79.6333 20.3893C79.6533 20.2345 79.6602 20.1113 79.6539 20.0197L79.5923 19.7938C79.5554 19.7042 79.5349 19.6289 79.5307 19.5678C79.5244 19.4762 79.5354 19.4141 79.5639 19.3814C79.5923 19.3488 79.6034 19.2867 79.597 19.195C79.6192 19.0708 79.626 18.9475 79.6176 18.8254C79.6092 18.7032 79.5866 18.5974 79.5497 18.5078C79.5434 18.4162 79.525 18.3715 79.4944 18.3736L79.4881 18.2819C79.5145 18.2188 79.555 18.1392 79.6098 18.0434C79.7541 17.9107 79.8636 17.7191 79.9384 17.4684C80.0132 17.2178 80.0453 17.0161 80.0348 16.8634C80.0306 16.8023 80.0427 16.7554 80.0712 16.7228C80.1301 16.688 80.1891 16.6533 80.2481 16.6185C80.3376 16.5817 80.3813 16.548 80.3792 16.5174L80.3302 16.4748C80.2997 16.4769 80.2834 16.4627 80.2813 16.4321C80.2792 16.4016 80.3218 16.3526 80.4092 16.2852C80.5535 16.1525 80.6905 15.913 80.82 15.5665C80.9801 15.2179 81.0813 14.9041 81.1234 14.625C81.115 14.5028 81.1361 14.3633 81.1866 14.2064C81.2351 14.0189 81.2846 13.8467 81.3352 13.6898C81.3857 13.5329 81.4252 13.4381 81.4537 13.4054C81.4821 13.3728 81.4942 13.3259 81.49 13.2649C81.5163 13.2017 81.5274 13.1395 81.5232 13.0784C81.519 13.0174 81.5443 12.9389 81.599 12.8431C81.6517 12.7167 81.7207 12.6045 81.806 12.5066C81.8608 12.4108 81.9013 12.3313 81.9277 12.2681C81.9846 12.2028 82.0109 12.1396 82.0067 12.0785L82.0035 12.0327C82.0014 12.0022 81.9993 11.9716 81.9972 11.9411C82.0235 11.8779 82.0672 11.8442 82.1283 11.84C82.1568 11.8073 82.1852 11.7747 82.2136 11.742C82.2421 11.7094 82.2552 11.6778 82.2531 11.6473L82.2042 11.6046C82.2021 11.5741 82.2 11.5435 82.1979 11.513C82.2263 11.4803 82.2711 11.4619 82.3321 11.4577C82.3627 11.4556 82.3922 11.4382 82.4206 11.4056C82.4491 11.3729 82.4622 11.3413 82.4601 11.3108C82.458 11.2802 82.4722 11.2639 82.5028 11.2618C82.5312 11.2292 82.5607 11.2118 82.5912 11.2097C82.6218 11.2076 82.695 11.1565 82.8108 11.0565C82.9267 10.9564 83.0557 10.8248 83.1979 10.6616C83.5392 10.2698 83.7066 10.0281 83.7003 9.93651C83.6961 9.87543 83.6482 9.84804 83.5566 9.85436C83.526 9.85646 83.5097 9.84224 83.5076 9.8117C83.5055 9.78116 83.5187 9.74956 83.5471 9.71692C83.604 9.65163 83.674 9.55474 83.7572 9.42626C83.8404 9.29778 83.9389 9.16825 84.0527 9.03767C84.1338 8.87865 84.217 8.75017 84.3023 8.65223C84.3876 8.5543 84.4608 8.50322 84.5219 8.49902C84.5524 8.49691 84.5961 8.46321 84.653 8.39792C84.7099 8.33263 84.7668 8.26734 84.8236 8.20205C84.8805 8.13676 84.9232 8.08779 84.9516 8.05514C84.9779 7.99195 84.9901 7.94509 84.988 7.91455L84.9848 7.86874L85.067 7.72499C85.1196 7.59861 85.2028 7.47013 85.3166 7.33955C85.5399 7.0173 85.9475 6.6977 86.5394 6.38074C86.7753 6.24174 86.9664 6.12117 87.1128 6.01903C87.2877 5.88423 87.374 5.80157 87.3719 5.77103C87.3698 5.74048 87.384 5.72416 87.4146 5.72206C87.443 5.68941 87.4725 5.67204 87.5031 5.66993C87.5641 5.66572 87.6384 5.62992 87.7258 5.56253C87.8132 5.49513 87.8843 5.41352 87.9391 5.31768C87.9939 5.22185 88.0181 5.12812 88.0118 5.0365C87.9992 4.85325 88.2209 4.73057 88.6769 4.66847C88.799 4.66005 88.9049 4.63742 88.9944 4.60056C89.0839 4.56371 89.1571 4.51264 89.214 4.44735C89.273 4.4126 89.3167 4.3789 89.3451 4.34625C89.4041 4.3115 89.4489 4.29308 89.4794 4.29097C89.6016 4.28256 89.7511 4.22622 89.9281 4.12197C90.105 4.01772 90.2667 3.91453 90.4131 3.81238C90.59 3.70813 90.7059 3.60809 90.7606 3.51226C90.7585 3.48172 90.787 3.44907 90.8459 3.41432C90.9334 3.34692 91.0066 3.29585 91.0655 3.2611C91.1551 3.22425 91.214 3.1895 91.2425 3.15685C91.2688 3.09367 91.2809 3.0468 91.2788 3.01626L91.2757 2.97045L91.3183 2.92148C91.3773 2.88673 91.4668 2.84987 91.5869 2.81092C91.7069 2.77196 91.8107 2.71878 91.8981 2.65139C92.0161 2.58189 92.1045 2.52976 92.1635 2.49501C92.2204 2.42972 92.2783 2.3797 92.3373 2.34495C92.3963 2.3102 92.441 2.29177 92.4716 2.28967L92.5664 2.32917C92.6274 2.32496 92.6885 2.32075 92.7496 2.31655C92.8107 2.31234 92.8402 2.29496 92.8381 2.26442C92.8665 2.23178 92.9265 2.2123 93.0182 2.20599C93.1077 2.16913 93.1983 2.14755 93.2899 2.14124L93.4273 2.13177C93.6411 2.11704 93.8649 2.02491 94.0987 1.85537C94.3915 1.65107 94.6906 1.53841 94.9961 1.51737C95.1793 1.50474 95.3494 1.52371 95.5063 1.57428L95.5979 1.56797C95.7506 1.55745 95.9307 1.49901 96.1382 1.39266C96.313 1.25786 96.4463 1.18731 96.5379 1.181C96.5684 1.1789 96.6 1.19206 96.6327 1.2205C96.6959 1.24683 96.7743 1.27212 96.8681 1.29635C96.9923 1.31847 97.1166 1.3406 97.2409 1.36272C97.3651 1.38485 97.4905 1.42224 97.6168 1.47491C97.7738 1.52548 97.8849 1.57919 97.9501 1.63607C98.0175 1.72349 98.0818 1.76509 98.1429 1.76088C98.2345 1.75457 98.3109 1.74931 98.3719 1.7451L98.5552 1.73248C98.6774 1.72406 98.8148 1.7146 98.9675 1.70407C99.1202 1.69355 99.2587 1.69936 99.383 1.72148C99.5378 1.7415 99.6773 1.76258 99.8016 1.7847C99.9543 1.77418 100.061 1.76682 100.122 1.76261C100.214 1.7563 100.291 1.76631 100.354 1.79264C100.448 1.81687 100.497 1.85953 100.501 1.92061C100.534 1.94905 100.567 1.97749 100.599 2.00593C100.632 2.03436 100.679 2.04648 100.74 2.04227C100.832 2.03596 101.005 2.10074 101.26 2.23662C101.543 2.33985 101.828 2.47362 102.116 2.63793C102.403 2.80225 102.644 2.95445 102.838 3.09453C103.295 3.49266 103.581 3.85655 103.695 4.18619C103.839 4.48319 103.916 4.70805 103.926 4.86076C103.941 5.07455 103.907 5.24569 103.823 5.37416C103.766 5.43946 103.712 5.53529 103.659 5.66166C103.637 5.78593 103.63 5.90915 103.638 6.03132C103.651 6.21457 103.629 6.33884 103.572 6.40413C103.515 6.46942 103.396 6.52365 103.215 6.56682C103.095 6.60578 102.991 6.65895 102.904 6.72635C102.814 6.7632 102.755 6.79795 102.727 6.8306C102.67 6.89589 102.552 6.96539 102.373 7.0391C102.222 7.08016 102.072 7.12122 101.921 7.16228C101.768 7.1728 101.631 7.18227 101.509 7.19069L101.234 7.20962C101.173 7.21383 101.082 7.23541 100.962 7.27437C100.873 7.31123 100.783 7.34808 100.694 7.38493C100.486 7.49129 100.23 7.55498 99.9244 7.57602C99.8306 7.55179 99.738 7.54283 99.6463 7.54915C99.4936 7.55967 99.3899 7.61284 99.3351 7.70868C99.3088 7.77186 99.2356 7.82294 99.1155 7.86189C99.026 7.89875 98.9354 7.92033 98.8438 7.92664C98.7216 7.93506 98.6005 7.95875 98.4805 7.9977C98.3604 8.03666 98.2556 8.07457 98.1661 8.11142C98.1092 8.17671 98.0218 8.24411 97.9038 8.31361C97.7838 8.35257 97.6637 8.39152 97.5437 8.43048C97.4562 8.49788 97.383 8.54895 97.3241 8.5837C97.2651 8.61845 97.2366 8.6511 97.2387 8.68164C97.2408 8.71218 97.1808 8.73166 97.0586 8.74007C96.967 8.74639 96.8601 8.75375 96.738 8.76217C96.6442 8.73794 96.5516 8.72898 96.4599 8.73529C96.3683 8.7416 96.293 8.76213 96.234 8.79688C96.114 8.83584 95.9665 8.92271 95.7917 9.05751C95.6737 9.12701 95.5405 9.19756 95.392 9.26916C95.274 9.33866 95.1692 9.37657 95.0776 9.38288C94.8027 9.40181 94.5352 9.52765 94.2751 9.76038C94.0434 9.96046 93.8912 10.2011 93.8185 10.4823C93.7943 10.576 93.7253 10.6882 93.6115 10.8187C93.5262 10.9167 93.4103 11.0167 93.2639 11.1189C93.146 11.1884 93.0412 11.2263 92.9496 11.2326L92.9101 11.3274C92.8511 11.3621 92.7942 11.4274 92.7394 11.5232C92.7131 11.5864 92.6583 11.6823 92.5751 11.8107C92.5204 11.9066 92.4503 12.0035 92.365 12.1014C92.2797 12.1993 92.2096 12.2962 92.1549 12.3921C92.1001 12.4879 92.0738 12.5511 92.0759 12.5816C92.078 12.6122 92.0506 12.6601 91.9937 12.7254C91.9653 12.758 91.9205 12.7764 91.8594 12.7806C91.8005 12.8154 91.7425 12.8654 91.6857 12.9307C91.6288 12.996 91.5872 13.0602 91.5608 13.1234C91.5345 13.1866 91.4797 13.2824 91.3965 13.4109C91.3133 13.5394 91.2301 13.6679 91.1469 13.7964C91.0089 14.0207 90.9441 14.1939 90.9526 14.3161L90.9652 14.4993L90.9162 14.4567C90.8857 14.4588 90.8267 14.4935 90.7393 14.5609C90.6803 14.5957 90.6081 14.662 90.5228 14.76C90.4375 14.8579 90.3522 14.9558 90.2669 15.0538C90.1795 15.1212 90.1063 15.1722 90.0473 15.207C89.9293 15.2765 89.8667 15.4803 89.8593 15.8183C89.8698 15.971 89.8629 16.0943 89.8387 16.188C89.845 16.2796 89.8329 16.3265 89.8024 16.3286L89.8087 16.4202C89.8108 16.4507 89.7987 16.4976 89.7723 16.5608C89.7439 16.5934 89.6849 16.6282 89.5954 16.665C89.508 16.7324 89.4369 16.8141 89.3821 16.9099C89.3579 17.0036 89.3368 17.1432 89.3189 17.3285C89.3094 17.636 89.2651 17.8846 89.1861 18.0741C89.1356 18.2311 89.0545 18.3901 88.9428 18.5512C88.8291 18.6818 88.7753 18.7929 88.7817 18.8845C88.788 18.9761 88.7922 19.0372 88.7943 19.0678C88.8006 19.1594 88.8517 19.2326 88.9475 19.2874L89.0881 19.3237C89.0902 19.3542 89.0618 19.3869 89.0028 19.4216C88.9154 19.489 88.8711 19.7376 88.87 20.1673C88.8826 20.3505 88.88 20.5348 88.8621 20.7202C88.8421 20.875 88.8199 20.9993 88.7957 21.093L88.821 21.4595C88.8315 21.6122 88.8562 21.7486 88.8952 21.8686C88.9647 21.9866 89.03 22.0435 89.091 22.0393L89.1827 22.033C89.1848 22.0635 89.1563 22.0961 89.0974 22.1309C89.0384 22.1656 88.9694 22.2778 88.8904 22.4674C88.8093 22.6264 88.7303 22.8159 88.6534 23.036C88.6049 23.2235 88.5839 23.3631 88.5902 23.4547C88.5965 23.5463 88.5865 23.6237 88.5601 23.6869C88.5643 23.748 88.5512 23.7796 88.5206 23.7817C88.4901 23.7838 88.4606 23.8012 88.4322 23.8338C88.4343 23.8643 88.4364 23.8949 88.4385 23.9254C88.4406 23.956 88.4416 23.9712 88.4416 23.9712C88.4722 23.9691 88.5027 23.967 88.5333 23.9649L88.5759 23.916C88.6065 23.9139 88.6228 23.9281 88.6249 23.9586C88.627 23.9892 88.6149 24.036 88.5885 24.0992C88.5927 24.1603 88.597 24.2214 88.6012 24.2825C88.6054 24.3435 88.6227 24.373 88.6533 24.3709C88.6859 24.3994 88.7033 24.4289 88.7054 24.4594C88.7381 24.4878 88.7412 24.5336 88.7149 24.5968C88.6622 24.7232 88.6443 24.9086 88.6611 25.1529C88.678 25.3972 88.7232 25.6089 88.7969 25.788C88.8685 25.9365 88.9064 26.0413 88.9107 26.1023C88.9454 26.1613 88.9638 26.2061 88.9659 26.2366L88.9296 26.3772C88.9054 26.4709 88.868 26.5963 88.8174 26.7532C88.7363 26.9122 88.6736 27.116 88.6294 27.3645C88.6135 27.5804 88.6099 27.7495 88.6183 27.8716C88.6267 27.9938 88.6319 28.0701 88.6341 28.1007C88.6404 28.1923 88.6588 28.2371 88.6893 28.235C88.7199 28.2329 88.7536 28.2766 88.7904 28.3661C88.8557 28.423 88.9078 28.5114 88.9468 28.6315C89.0247 28.8716 89.1432 29.0322 89.3022 29.1133C89.3654 29.1397 89.4296 29.1813 89.4949 29.2382L89.5439 29.2808C89.546 29.3114 89.5491 29.3572 89.5534 29.4182C89.5881 29.4772 89.6086 29.5525 89.6149 29.6442C89.6539 29.7642 89.7713 29.9096 89.9672 30.0802C90.161 30.2203 90.3547 30.3604 90.5485 30.5004C90.7707 30.6079 90.9429 30.6574 91.0651 30.649C91.0956 30.6469 91.1588 30.6732 91.2546 30.728C91.381 30.7806 91.4921 30.8344 91.5879 30.8891C91.6838 30.9439 91.8102 30.9966 91.9671 31.0471C92.124 31.0977 92.2646 31.134 92.3889 31.1562C92.5131 31.1783 92.6232 31.2167 92.719 31.2715C92.8433 31.2936 92.937 31.3179 93.0002 31.3442C93.0349 31.4032 93.0839 31.4458 93.1471 31.4722C93.2082 31.468 93.2693 31.4638 93.3304 31.4595C93.3588 31.4269 93.3883 31.4095 93.4188 31.4074C93.4494 31.4053 93.481 31.4185 93.5136 31.4469C93.64 31.4996 93.7511 31.5533 93.8469 31.6081C94.0059 31.6892 94.117 31.7429 94.1802 31.7692C94.2719 31.7629 94.3482 31.7577 94.4093 31.7535C94.5009 31.7472 94.622 31.7235 94.7726 31.6824C94.9253 31.6719 95.0475 31.6635 95.1391 31.6572C95.2592 31.6182 95.3356 31.6129 95.3682 31.6414C95.3987 31.6393 95.414 31.6382 95.414 31.6382C95.4424 31.6056 95.4556 31.574 95.4535 31.5434C95.4819 31.5108 95.5562 31.475 95.6763 31.436C95.7963 31.3971 95.9317 31.3571 96.0823 31.316C96.2655 31.3034 96.4172 31.2776 96.5372 31.2386C96.6573 31.1997 96.7315 31.1639 96.76 31.1312C96.7884 31.0986 96.8332 31.0801 96.8943 31.0759C96.9553 31.0717 97.0175 31.0828 97.0807 31.1091C97.1439 31.1355 97.2365 31.1444 97.3587 31.136C97.4809 31.1276 97.5867 31.105 97.6762 31.0681C97.7658 31.0312 97.8716 31.0086 97.9938 31.0002C98.1159 30.9918 98.2228 30.9844 98.3145 30.9781L98.6351 30.956L98.9953 30.8391C99.0827 30.7717 99.157 30.7359 99.2181 30.7317C99.3076 30.6949 99.3676 30.6754 99.3982 30.6733L99.4471 30.716L99.5388 30.7096C99.5693 30.7075 99.5825 30.6759 99.5783 30.6149C99.6067 30.5822 99.682 30.5617 99.8042 30.5533C99.9242 30.5143 100.107 30.5017 100.354 30.5154C100.509 30.5354 100.647 30.5412 100.769 30.5328L100.907 30.5233C100.998 30.517 101.058 30.4975 101.087 30.4649C101.17 30.3364 101.302 30.2506 101.483 30.2074C101.665 30.1643 101.801 30.1395 101.893 30.1332C102.106 30.1185 102.291 30.1211 102.446 30.1412C102.79 30.2402 103.056 30.3139 103.243 30.3624C103.459 30.3782 103.614 30.3982 103.708 30.4224C103.799 30.4161 103.906 30.4088 104.028 30.4003C104.242 30.3856 104.479 30.4767 104.738 30.6737C104.836 30.759 104.934 30.8443 105.031 30.9296C105.158 30.9823 105.252 31.0065 105.313 31.0023C105.345 31.0308 105.379 31.0745 105.414 31.1334C105.477 31.1598 105.51 31.1882 105.512 31.2188C105.516 31.2798 105.519 31.3257 105.521 31.3562C105.554 31.3846 105.601 31.3968 105.662 31.3925C105.937 31.3736 106.106 31.6074 106.17 32.094C106.181 32.2467 106.176 32.4005 106.156 32.5553C106.134 32.6795 106.11 32.7733 106.083 32.8365C106.029 32.9323 105.992 33.0729 105.974 33.2582C105.954 33.413 105.951 33.5821 105.963 33.7653C105.956 34.1034 105.926 34.3356 105.873 34.462C105.851 34.5863 105.764 34.6537 105.611 34.6642C105.55 34.6684 105.505 34.6868 105.477 34.7195C105.448 34.7521 105.435 34.7837 105.437 34.8142C105.441 34.8753 105.415 34.9385 105.358 35.0038C105.299 35.0385 105.226 35.0896 105.139 35.157C105.049 35.1939 104.961 35.246 104.873 35.3134C104.786 35.3808 104.715 35.4624 104.66 35.5582C104.634 35.6214 104.592 35.6857 104.535 35.751C104.476 35.7857 104.416 35.8052 104.355 35.8094L104.26 35.7699L104.126 35.8252C104.036 35.862 103.948 35.9141 103.861 35.9815C103.802 36.0163 103.773 36.0489 103.775 36.0795C103.777 36.11 103.704 36.1611 103.556 36.2327C103.436 36.2717 103.194 36.3343 102.832 36.4206C102.71 36.429 102.604 36.4517 102.515 36.4885C102.425 36.5254 102.366 36.5601 102.338 36.5928C102.309 36.6254 102.25 36.6602 102.161 36.697C102.071 36.7339 101.965 36.7565 101.843 36.7649C101.723 36.8039 101.604 36.8581 101.486 36.9276C101.368 36.9971 101.265 37.0656 101.178 37.133C100.951 37.3941 100.548 37.56 99.9695 37.6305C99.88 37.6673 99.7926 37.7347 99.7073 37.8327C99.622 37.9306 99.5814 38.0101 99.5856 38.0712C99.5877 38.1018 99.544 38.1355 99.4545 38.1723C99.3955 38.2071 99.3202 38.2276 99.2286 38.2339C99.0148 38.2486 98.8805 38.3039 98.8257 38.3997C98.7994 38.4629 98.7557 38.4966 98.6946 38.5008C98.6641 38.5029 98.603 38.5071 98.5114 38.5135L98.2823 38.5292C98.0359 38.5155 97.8363 38.5139 97.6836 38.5245C97.5003 38.5371 97.257 38.5692 96.9537 38.6208C96.801 38.6313 96.6799 38.655 96.5904 38.6918C96.4988 38.6981 96.4387 38.7176 96.4103 38.7503C96.384 38.8134 96.2944 38.8503 96.1417 38.8608C95.9585 38.8734 95.7752 38.8861 95.592 38.8987C95.4066 38.8808 95.2823 38.8587 95.2192 38.8323C95.156 38.806 95.1091 38.7939 95.0786 38.796C94.9869 38.8023 94.8974 38.8391 94.81 38.9065C94.7226 38.9739 94.6036 39.0282 94.453 39.0692C94.3308 39.0776 94.1628 39.0892 93.949 39.1039C93.1486 39.067 92.5194 39.0643 92.0612 39.0959C91.6031 39.1275 91.3009 39.1943 91.1545 39.2965C91.126 39.3291 91.0965 39.3465 91.066 39.3486C91.066 39.3486 91.0507 39.3496 91.0202 39.3517Z" fill="#870327"/>
<path d="M116.52 39.3442C116.457 39.3178 116.379 39.2926 116.285 39.2683C116.222 39.242 116.16 39.2309 116.098 39.2351C115.976 39.2435 115.823 39.2388 115.637 39.2209C115.48 39.1703 115.322 39.1045 115.163 39.0234C115.035 38.9402 114.968 38.868 114.964 38.8069C114.962 38.7764 114.928 38.7327 114.863 38.6758C114.826 38.5863 114.774 38.4978 114.707 38.4104C114.639 38.323 114.572 38.2356 114.505 38.1482C114.466 38.0281 114.444 37.9375 114.44 37.8764C114.403 37.7869 114.368 37.7279 114.336 37.6995C114.334 37.669 114.317 37.6547 114.287 37.6568C114.256 37.6589 114.225 37.6458 114.192 37.6173C114.157 37.5584 114.137 37.4831 114.13 37.3914C114.122 37.2693 114.081 37.1187 114.007 36.9396C113.962 36.7279 113.902 36.5326 113.829 36.3535C113.785 36.1724 113.749 36.0829 113.718 36.085C113.688 36.0871 113.656 36.0739 113.623 36.0455C113.621 36.0149 113.618 35.9691 113.614 35.908C113.61 35.8469 113.591 35.8022 113.559 35.7737C113.554 35.7127 113.551 35.6668 113.549 35.6363L113.524 35.2698C113.552 35.2372 113.582 35.2198 113.612 35.2177L113.658 35.2145L113.707 35.2572C113.738 35.2551 113.752 35.2388 113.75 35.2082C113.748 35.1777 113.729 35.1329 113.694 35.0739C113.478 34.5979 113.332 34.2703 113.259 34.0913C113.215 33.9102 113.19 33.7585 113.181 33.6363C113.175 33.5447 113.184 33.452 113.208 33.3583C113.259 33.2014 113.282 33.0924 113.278 33.0313C113.271 32.9397 113.238 32.896 113.176 32.9002C113.144 32.8717 113.11 32.828 113.075 32.769C113.041 32.7101 113.021 32.65 113.017 32.589C113.013 32.5279 112.994 32.4831 112.962 32.4547C112.957 32.3936 112.94 32.3641 112.91 32.3662L112.872 31.8165C112.861 31.6637 112.834 31.4968 112.791 31.3157C112.748 31.1345 112.706 30.9686 112.665 30.818C112.558 30.6106 112.5 30.4305 112.489 30.2778C112.483 30.1861 112.493 30.1087 112.52 30.0455C112.544 29.9518 112.552 29.8439 112.543 29.7217C112.533 29.569 112.524 29.4468 112.518 29.3552L112.493 28.9887C112.486 28.8971 112.497 28.8349 112.526 28.8023C112.552 28.7391 112.562 28.6617 112.556 28.5701C112.578 28.4458 112.587 28.3531 112.583 28.292L112.521 28.0661C112.509 27.8829 112.477 27.6396 112.425 27.3363C112.402 27.0003 112.379 26.6644 112.355 26.3284C112.302 25.9946 112.252 25.7218 112.207 25.5101C112.19 25.2658 112.165 25.1294 112.133 25.1009C112.131 25.0704 112.112 25.0256 112.078 24.9667C112.073 24.9056 112.068 24.8292 112.062 24.7376C112.058 24.6765 112.036 24.5859 111.997 24.4659C111.958 24.3458 111.921 24.2563 111.886 24.1973C111.819 24.1099 111.784 24.0509 111.782 24.0204C111.778 23.9593 111.775 23.9135 111.773 23.8829L111.77 23.8371C111.798 23.8045 111.808 23.7271 111.8 23.6049C111.82 23.4501 111.825 23.3116 111.817 23.1894C111.811 23.0978 111.788 22.992 111.749 22.8719C111.73 22.597 111.715 22.3832 111.705 22.2305C111.723 22.0452 111.747 21.9514 111.778 21.9493L111.771 21.8577L111.808 21.7171L111.752 21.5828C111.746 21.4912 111.739 21.3843 111.73 21.2622C111.722 21.14 111.731 21.0473 111.757 20.9841C111.781 20.8904 111.79 20.7977 111.784 20.7061C111.776 20.5839 111.735 20.4333 111.661 20.2543C111.587 20.0752 111.548 19.9552 111.544 19.8941C111.538 19.8025 111.533 19.7414 111.531 19.7108C111.525 19.6192 111.534 19.5265 111.558 19.4328C111.582 19.3391 111.587 19.1853 111.572 18.9715C111.586 18.7251 111.585 18.4797 111.568 18.2354C111.551 17.991 111.536 17.7772 111.524 17.594C111.511 17.4107 111.518 17.2875 111.544 17.2243C111.571 17.1611 111.594 17.0522 111.614 16.8973C111.634 16.7425 111.64 16.604 111.631 16.4819C111.653 16.3576 111.663 16.2802 111.661 16.2496C111.657 16.1886 111.64 16.1591 111.609 16.1612C111.578 16.1633 111.545 16.1196 111.508 16.0301C111.502 15.9384 111.495 15.8468 111.489 15.7552C111.481 15.633 111.472 15.5108 111.464 15.3887C111.453 15.236 111.43 15.1149 111.393 15.0253C111.356 14.9358 111.334 14.8452 111.328 14.7536C111.317 14.6009 111.336 14.4308 111.385 14.2434C111.405 14.0886 111.412 13.9653 111.405 13.8737C111.43 13.78 111.426 13.7342 111.396 13.7363C111.365 13.7384 111.349 13.7242 111.347 13.6936C111.345 13.6631 111.357 13.6162 111.383 13.553C111.432 13.3656 111.443 13.0886 111.418 12.7221C111.395 12.3861 111.33 12.1144 111.224 11.9069C111.152 11.7584 111.113 11.6384 111.107 11.5467C111.103 11.4857 111.115 11.4388 111.143 11.4061C111.174 11.404 111.187 11.3724 111.183 11.3114C111.207 11.2176 111.216 11.125 111.21 11.0333C111.206 10.9722 111.213 10.8643 111.233 10.7095C111.253 10.5547 111.289 10.3988 111.339 10.2419C111.386 10.0239 111.41 9.71532 111.414 9.31617C111.445 8.88438 111.447 8.46996 111.42 8.07292C111.421 7.64323 111.402 7.36836 111.363 7.24829C111.329 7.18931 111.309 7.12928 111.305 7.0682C111.294 6.91549 111.327 6.72909 111.404 6.50898C111.453 6.32152 111.473 6.16671 111.464 6.04454C111.458 5.95292 111.438 5.87762 111.403 5.81864L111.397 5.72701C111.39 5.63539 111.398 5.52744 111.42 5.40317C111.436 5.18727 111.468 4.98559 111.517 4.79814C111.596 4.60857 111.677 4.44955 111.76 4.32107C111.788 4.28843 111.813 4.1947 111.833 4.03989C111.853 3.88507 111.855 3.70077 111.841 3.48698C111.84 3.02675 111.927 2.72924 112.101 2.59445C112.156 2.49862 112.209 2.37224 112.259 2.21532C112.31 2.05841 112.359 1.88622 112.408 1.69876C112.448 1.38914 112.507 1.13954 112.586 0.94998C112.696 0.758314 112.812 0.658273 112.934 0.649857L113.019 0.551919C113.107 0.484524 113.178 0.40291 113.233 0.307076C113.346 0.176494 113.419 0.11015 113.449 0.108046C113.508 0.0732961 113.571 0.09963 113.639 0.187047C113.706 0.274464 113.755 0.31712 113.786 0.315017C113.816 0.312913 113.845 0.280267 113.871 0.217079C113.867 0.155996 113.909 0.107027 113.999 0.0701736C114.088 0.0333198 114.194 0.010685 114.316 0.00226868C114.408 -0.00404343 114.531 0.00281111 114.686 0.0228328C114.9 0.0081049 115.084 0.0107515 115.239 0.0307727C115.424 0.0486907 115.533 0.071868 115.566 0.100306C115.629 0.126639 115.677 0.154025 115.71 0.182463C115.773 0.208796 115.82 0.220911 115.85 0.218807C115.881 0.216703 115.993 0.285693 116.187 0.425778C116.38 0.565862 116.592 0.735436 116.82 0.9345C117.144 1.18834 117.374 1.40267 117.509 1.5775C117.674 1.75023 117.761 1.89768 117.769 2.01985C117.847 2.25997 117.899 2.56329 117.924 2.92979C117.978 3.26364 118 3.58433 117.991 3.89185C118.009 4.16673 118.005 4.32049 117.976 4.35313C117.948 4.38578 117.936 4.43264 117.94 4.49373C117.944 4.55481 117.965 4.63011 118.002 4.71963C118.045 4.90078 118.075 5.11352 118.091 5.35785C118.108 5.60219 118.108 5.81703 118.09 6.00239C118.1 6.15509 118.075 6.23355 118.014 6.23776C117.983 6.23986 117.969 6.25619 117.971 6.28673C117.976 6.34781 117.995 6.40784 118.03 6.46682C118.097 6.55424 118.137 6.68958 118.15 6.87283C118.191 7.02343 118.202 7.19141 118.185 7.37676C118.195 7.52947 118.187 7.63742 118.161 7.70061C118.132 7.73325 118.108 7.82698 118.088 7.98179C118.066 8.10607 118.059 8.22928 118.068 8.35145C118.076 8.47362 118.082 8.56524 118.087 8.62633L118.102 8.85539C118.111 8.97756 118.13 9.03759 118.161 9.03548L118.173 9.21873C118.214 9.36934 118.241 9.53627 118.254 9.71952L118.292 10.2693C118.3 10.3914 118.351 10.4646 118.445 10.4889C118.51 10.5457 118.545 10.6047 118.549 10.6658C118.551 10.6963 118.54 10.7585 118.516 10.8522C118.49 10.9154 118.449 10.9949 118.394 11.0907C118.37 11.1845 118.347 11.2935 118.325 11.4177C118.331 11.5094 118.307 11.6031 118.252 11.6989C118.226 11.7621 118.198 11.81 118.17 11.8427C118.109 11.8469 118.084 11.9253 118.094 12.078C118.103 12.2002 118.113 12.3529 118.126 12.5362L118.167 13.1317C118.227 13.5572 118.266 13.9074 118.285 14.1823C118.302 14.4266 118.316 14.6251 118.326 14.7778C118.335 14.9 118.342 15.0069 118.348 15.0985C118.355 15.1901 118.345 15.2676 118.318 15.3307C118.292 15.3939 118.281 15.4561 118.285 15.5171C118.293 15.6393 118.347 15.7431 118.445 15.8284L118.543 15.9137C118.538 15.8526 118.565 15.7894 118.622 15.7241C118.678 15.6588 118.752 15.6078 118.841 15.5709C119.105 15.3993 119.274 15.1728 119.347 14.8917C119.45 14.6084 119.563 14.4625 119.685 14.4541C119.807 14.4457 119.906 14.3314 119.983 14.1113C120.008 14.0176 120.076 13.8902 120.187 13.729C120.299 13.5679 120.426 13.4057 120.568 13.2425C120.736 13.0161 120.833 12.856 120.857 12.7623C120.912 12.6664 120.938 12.6033 120.936 12.5727L120.914 12.252C120.908 12.1604 120.933 12.0819 120.99 12.0167C121.045 11.9208 121.103 11.8708 121.164 11.8666C121.225 11.8624 121.269 11.844 121.298 11.8113C121.357 11.7766 121.384 11.7286 121.38 11.6676C121.406 11.6044 121.462 11.5238 121.548 11.4259C121.663 11.3258 121.78 11.2411 121.898 11.1716C122.016 11.1021 122.119 11.0336 122.206 10.9662L122.292 10.8683L122.288 10.8225C122.284 10.7614 122.323 10.6513 122.404 10.4923C122.483 10.3028 122.593 10.1264 122.736 9.96313C122.876 9.76936 122.976 9.67037 123.037 9.66616C123.098 9.66196 123.173 9.62615 123.26 9.55876C123.345 9.46082 123.431 9.36288 123.516 9.26495C123.599 9.13647 123.683 9.02326 123.769 8.92532L123.851 8.78157C123.882 8.77947 123.896 8.76315 123.894 8.7326C123.92 8.66942 123.932 8.62255 123.93 8.59201C123.928 8.56147 123.955 8.51355 124.012 8.44826C124.069 8.38297 124.126 8.31768 124.183 8.25239C124.272 8.21553 124.33 8.16551 124.357 8.10232C124.411 8.00649 124.438 7.9433 124.436 7.91276C124.431 7.85168 124.441 7.77427 124.466 7.68054C124.52 7.58471 124.575 7.48888 124.63 7.39304C124.683 7.26667 124.737 7.17083 124.794 7.10554C124.851 7.04025 124.895 7.00655 124.925 7.00445L124.971 7.00129L125.056 6.90336C125.083 6.84017 125.111 6.80752 125.142 6.80542L125.184 6.75645L125.279 6.79595L125.371 6.78964C125.432 6.78543 125.457 6.70697 125.447 6.55426C125.436 6.40156 125.488 6.25991 125.602 6.12933C125.66 6.09458 125.704 6.06088 125.733 6.02823L125.775 5.97927L125.772 5.93345C125.77 5.90291 125.811 5.8234 125.894 5.69492C126.008 5.56434 126.136 5.41743 126.278 5.2542C126.621 4.893 126.815 4.58812 126.859 4.33958C126.853 4.24796 126.863 4.17055 126.889 4.10736C126.946 4.04207 127.005 4.00732 127.066 4.00311C127.158 3.9968 127.197 3.90202 127.185 3.71877L127.175 3.58133C127.169 3.48971 127.225 3.40914 127.343 3.33965C127.461 3.27014 127.67 3.19433 127.971 3.11221C128.152 3.06904 128.3 2.98217 128.414 2.85159C128.556 2.68836 128.622 2.53039 128.611 2.37768C128.607 2.3166 128.618 2.25446 128.644 2.19127C128.671 2.12809 128.698 2.08017 128.727 2.04752C128.783 1.98223 128.839 1.90167 128.894 1.80584C128.949 1.71 129.004 1.61417 129.058 1.51834C129.08 1.39407 129.106 1.31561 129.134 1.28296C129.16 1.21978 129.189 1.18713 129.219 1.18503L129.265 1.18187C129.296 1.17977 129.342 1.17661 129.403 1.1724C129.462 1.13765 129.536 1.10185 129.625 1.065C129.743 0.995498 129.833 0.958644 129.894 0.954435C129.925 0.952332 129.957 0.980769 129.992 1.03975C130.025 1.06819 130.057 1.09662 130.09 1.12506C130.12 1.12296 130.151 1.12085 130.182 1.11875C130.21 1.0861 130.223 1.05451 130.221 1.02397C130.219 0.993426 130.186 0.964989 130.123 0.938655L130.074 0.895999C130.072 0.865457 130.178 0.842822 130.392 0.828093C130.514 0.819677 130.62 0.797042 130.709 0.760189C130.829 0.721231 130.919 0.684377 130.978 0.649627C131.122 0.516941 131.316 0.44218 131.561 0.425349C131.836 0.406412 132.1 0.464882 132.355 0.600758C132.418 0.627092 132.465 0.639207 132.496 0.637103C132.557 0.632895 132.603 0.629739 132.633 0.627635C132.664 0.625531 132.713 0.668188 132.78 0.755604C132.85 0.873563 132.921 1.02206 132.995 1.20111C133.069 1.38015 133.11 1.53075 133.118 1.65292C133.125 1.74454 133.147 1.85039 133.186 1.97045C133.223 2.05997 133.275 2.14844 133.343 2.23586C133.443 2.35171 133.504 2.57762 133.527 2.91358C133.581 3.24743 133.589 3.58445 133.551 3.92461C133.511 4.23424 133.419 4.45539 133.274 4.58808C133.218 4.65337 133.178 4.74815 133.156 4.87242C133.132 4.96615 133.123 5.05883 133.129 5.15046C133.135 5.24208 133.127 5.35003 133.105 5.4743C133.081 5.56803 133.042 5.66281 132.987 5.75864C132.96 5.82183 132.936 5.91556 132.914 6.03983C132.89 6.13356 132.881 6.22624 132.887 6.31786C132.891 6.37894 132.866 6.4574 132.811 6.55324C132.787 6.64696 132.747 6.72648 132.69 6.79177C132.633 6.85706 132.577 6.93762 132.522 7.03345C132.496 7.09664 132.485 7.15878 132.489 7.21986C132.493 7.28094 132.483 7.35835 132.459 7.45208C132.435 7.54581 132.395 7.64059 132.341 7.73642C132.284 7.80171 132.243 7.88122 132.219 7.97495C132.195 8.06868 132.185 8.14609 132.189 8.20717L132.195 8.2988C132.22 8.6653 132.126 8.85591 131.912 8.87064C131.882 8.87275 131.809 8.92382 131.693 9.02386C131.577 9.1239 131.477 9.23816 131.394 9.36664C131.311 9.49512 131.27 9.57463 131.272 9.60517C131.275 9.63571 131.248 9.6989 131.193 9.79473C131.137 9.86002 131.081 9.94059 131.026 10.0364C130.973 10.1628 130.921 10.2892 130.868 10.4155C130.815 10.5419 130.792 10.6509 130.798 10.7425C130.813 10.9563 130.691 11.1796 130.43 11.4123C130.258 11.5777 130.141 11.6624 130.08 11.6666C130.049 11.6687 130.033 11.6545 130.031 11.624C129.996 11.565 129.963 11.5366 129.933 11.5387C129.872 11.5429 129.783 11.595 129.667 11.695C129.578 11.7319 129.505 11.783 129.448 11.8483C129.419 11.8809 129.406 11.9125 129.408 11.943L129.454 11.9399L129.415 12.0347C129.386 12.0673 129.342 12.101 129.283 12.1358C129.139 12.2684 129.073 12.4264 129.086 12.6097C129.101 12.8235 129.036 12.9967 128.892 13.1294C128.833 13.1641 128.789 13.1978 128.76 13.2305C128.76 13.2305 128.761 13.2457 128.764 13.2763L128.809 13.2731L128.77 13.3679C128.772 13.3985 128.745 13.4464 128.688 13.5117C128.659 13.5443 128.619 13.6238 128.566 13.7502C128.513 13.8766 128.475 13.9866 128.451 14.0803C128.429 14.2046 128.376 14.331 128.293 14.4595C128.238 14.5553 128.182 14.6359 128.125 14.7012C128.007 14.7707 127.935 14.837 127.909 14.9002C127.911 14.9307 127.914 14.9765 127.918 15.0376L127.931 15.2209C127.937 15.3125 127.928 15.4052 127.904 15.4989C127.91 15.5905 127.899 15.6527 127.871 15.6853C127.845 15.7485 127.833 15.8106 127.838 15.8717C127.84 15.9023 127.842 15.9328 127.844 15.9633L127.85 16.055C127.863 16.2382 127.591 16.5178 127.034 16.8938C126.857 16.998 126.711 17.1154 126.597 17.246C126.512 17.3439 126.456 17.4245 126.43 17.4877C126.404 17.5509 126.376 17.5988 126.348 17.6314C126.319 17.6641 126.29 17.6815 126.259 17.6836C126.198 17.6878 126.111 17.7552 125.997 17.8857C125.914 18.0142 125.815 18.1438 125.702 18.2743C125.618 18.4028 125.579 18.4976 125.583 18.5587C125.587 18.6198 125.577 18.6972 125.553 18.7909C125.529 18.8846 125.475 18.9957 125.392 19.1242C125.341 19.2811 125.23 19.4423 125.057 19.6076C124.884 19.7729 124.724 19.8914 124.575 19.963C124.457 20.0325 124.352 20.0704 124.261 20.0767L124.215 20.0799L124.12 20.0404L124.032 20.0925C123.973 20.1272 123.916 20.1925 123.861 20.2884C123.804 20.3537 123.778 20.4168 123.782 20.4779C123.791 20.6001 123.726 20.7733 123.588 20.9976C123.45 21.222 123.296 21.4321 123.125 21.6279C122.983 21.7912 122.866 21.8759 122.774 21.8822L122.725 21.8396L122.728 21.8854C122.7 21.918 122.687 21.9496 122.689 21.9802C122.691 22.0107 122.68 22.0729 122.656 22.1666C122.631 22.2603 122.591 22.3398 122.534 22.4051C122.479 22.5009 122.439 22.5805 122.412 22.6436C122.386 22.7068 122.374 22.7537 122.376 22.7842L122.379 22.83L122.333 22.8332C122.303 22.8353 122.244 22.8701 122.156 22.9375C122.1 23.0027 122.027 23.0691 121.94 23.1365C121.857 23.265 121.803 23.3761 121.779 23.4698C121.785 23.5614 121.79 23.6378 121.795 23.6989L121.804 23.8363C121.869 23.8932 121.933 23.9195 121.994 23.9153L122.085 23.909C122.207 23.9006 122.321 23.9848 122.425 24.1618C122.499 24.3408 122.619 24.532 122.787 24.7352C122.985 24.9364 123.165 25.1081 123.328 25.2503C123.492 25.3925 123.619 25.4604 123.711 25.4541C123.772 25.4499 123.819 25.462 123.851 25.4904C123.882 25.4883 123.898 25.5025 123.9 25.5331C123.933 25.5615 123.982 25.6042 124.047 25.6611C124.141 25.6853 124.251 25.7237 124.377 25.7764C124.502 25.7985 124.594 25.8075 124.655 25.8033C124.686 25.8012 124.717 25.8143 124.75 25.8428C124.813 25.8691 124.861 25.8965 124.894 25.9249C124.929 25.9839 124.993 26.0255 125.087 26.0498C125.178 26.0434 125.27 26.0371 125.361 26.0308L125.499 26.0213C125.652 26.0108 125.81 26.0767 125.973 26.2189C126.069 26.2736 126.167 26.3589 126.267 26.4748C126.395 26.558 126.507 26.627 126.603 26.6818C126.668 26.7386 126.733 26.7802 126.796 26.8066C126.887 26.8003 126.949 26.7961 126.979 26.7939L127.208 26.7782C127.21 26.8087 127.197 26.8403 127.169 26.873L127.172 26.9188L127.309 26.9093C127.37 26.9051 127.432 26.9161 127.496 26.9425C127.589 26.9667 127.7 27.0204 127.829 27.1036C127.927 27.189 128.024 27.259 128.12 27.3138C128.246 27.3664 128.324 27.3917 128.355 27.3896C128.416 27.3854 128.495 27.4107 128.59 27.4655C128.686 27.5202 128.768 27.5913 128.835 27.6787C128.968 27.823 129.113 27.9205 129.27 27.971C129.424 27.991 129.656 28.0058 129.963 28.0153C130.825 28.048 131.266 28.2171 131.287 28.5225C131.289 28.553 131.354 28.6099 131.483 28.6931C131.64 28.7437 131.814 28.8237 132.006 28.9333C132.226 29.0102 132.43 29.0729 132.617 29.1213C132.804 29.1698 132.944 29.1909 133.036 29.1845C133.129 29.2088 133.193 29.2351 133.225 29.2635C133.286 29.2593 133.333 29.2715 133.366 29.2999C133.37 29.361 133.388 29.4057 133.421 29.4342C133.482 29.43 133.528 29.4268 133.558 29.4247C133.62 29.4205 133.667 29.4479 133.702 29.5069C133.768 29.5637 133.818 29.6217 133.852 29.6806C133.889 29.7702 133.925 29.8444 133.96 29.9034C134.025 29.9603 134.089 30.0019 134.152 30.0282C134.246 30.0524 134.389 30.1193 134.58 30.2289C134.772 30.3384 134.966 30.4785 135.162 30.6491C135.356 30.7892 135.518 30.9161 135.648 31.0299C135.714 31.0867 135.779 31.1436 135.844 31.2005C135.94 31.2553 136.019 31.2805 136.08 31.2763C136.141 31.2721 136.19 31.3148 136.226 31.4043C136.292 31.4612 136.348 31.6107 136.396 31.853C136.441 32.0647 136.471 32.2774 136.485 32.4912C136.515 32.9188 136.451 33.3221 136.293 33.7013C135.97 34.3679 135.641 34.7128 135.305 34.7359C135.244 34.7401 135.184 34.7596 135.125 34.7943C135.064 34.7985 135.035 34.8159 135.037 34.8465C134.978 34.8812 134.841 34.906 134.628 34.9207C134.414 34.9354 134.215 34.9491 134.032 34.9617L133.482 34.9996C133.083 34.9964 132.699 34.9922 132.331 34.9869C131.993 34.9795 131.73 34.9515 131.542 34.9031C131.388 34.8831 131.217 34.8641 131.032 34.8462C130.877 34.8261 130.754 34.8193 130.662 34.8256C130.54 34.834 130.417 34.8272 130.293 34.805C130.168 34.7829 130.058 34.7445 129.963 34.6897C129.838 34.6676 129.699 34.6465 129.544 34.6265C129.387 34.5759 129.232 34.5559 129.08 34.5664C128.925 34.5464 128.786 34.5406 128.664 34.549C128.54 34.5269 128.446 34.5026 128.383 34.4763C128.35 34.4479 128.273 34.4379 128.151 34.4463C128.026 34.4241 127.903 34.4173 127.781 34.4257C127.628 34.4362 127.459 34.4325 127.274 34.4146C127.117 34.3641 126.992 34.3267 126.898 34.3024C126.802 34.2477 126.708 34.2234 126.617 34.2297C126.523 34.2055 126.461 34.1944 126.43 34.1965L126.385 34.1997C126.354 34.2018 126.338 34.1876 126.336 34.157C126.333 34.1265 126.3 34.0828 126.234 34.0259C126.2 33.9669 126.133 33.8948 126.035 33.8095C125.903 33.6652 125.775 33.5973 125.653 33.6057L125.519 33.661C125.336 33.6736 125.18 33.6383 125.051 33.5551C124.986 33.4982 124.891 33.4587 124.767 33.4366C124.641 33.3839 124.515 33.3465 124.391 33.3244C124.112 33.2822 123.938 33.2022 123.868 33.0842C123.833 33.0252 123.752 32.9542 123.623 32.8709C123.495 32.7877 123.337 32.7219 123.149 32.6734C122.99 32.5923 122.849 32.5407 122.724 32.5186C122.631 32.4944 122.569 32.4833 122.538 32.4854L122.401 32.4949C122.339 32.4991 122.262 32.4891 122.168 32.4648C122.105 32.4385 122.027 32.4132 121.933 32.389C121.87 32.3627 121.808 32.3516 121.747 32.3558C121.685 32.36 121.623 32.349 121.56 32.3226C121.528 32.2942 121.495 32.2657 121.462 32.2373C121.427 32.1783 121.395 32.1499 121.364 32.152C121.362 32.1214 121.346 32.1072 121.315 32.1093L121.273 32.1583L121.135 32.1678C121.072 32.1414 121.023 32.0988 120.988 32.0398C120.856 31.8955 120.695 31.7839 120.505 31.7049C120.315 31.6259 120.16 31.5906 120.037 31.599L119.946 31.6053C119.887 31.64 119.844 31.689 119.818 31.7522C119.82 31.7827 119.823 31.8286 119.827 31.8896L119.843 32.1187C119.882 32.2388 119.905 32.3446 119.911 32.4362C119.917 32.5279 119.905 32.5747 119.875 32.5768C119.846 32.6095 119.82 32.6727 119.796 32.7664C119.8 32.8275 119.804 32.8886 119.808 32.9496C119.814 33.0413 119.809 33.1798 119.791 33.3651C119.801 33.5178 119.797 33.6716 119.777 33.8264C119.789 34.0096 119.791 34.255 119.781 34.5625C119.8 34.8374 119.818 35.097 119.835 35.3414C119.838 35.8321 119.83 36.1549 119.81 36.3097C119.787 36.434 119.761 36.4972 119.731 36.4993L119.685 36.5025L119.636 36.4598L119.593 36.5088L119.599 36.6004C119.604 36.6615 119.593 36.7236 119.566 36.7868C119.538 36.8194 119.493 36.8379 119.432 36.8421C119.403 36.8747 119.376 36.9226 119.35 36.9858C119.321 37.0185 119.308 37.0501 119.31 37.0806C119.312 37.1112 119.299 37.1427 119.271 37.1754C119.242 37.208 119.213 37.2254 119.182 37.2275C119.152 37.2296 119.122 37.247 119.094 37.2796C119.096 37.3102 119.099 37.356 119.103 37.4171C119.105 37.4476 119.093 37.4945 119.067 37.5577C119.041 37.6209 118.998 37.6698 118.939 37.7046C118.911 37.7372 118.883 37.7851 118.857 37.8483C118.859 37.8789 118.861 37.9094 118.863 37.94L118.866 37.9858C118.868 38.0163 118.855 38.0479 118.827 38.0806C118.829 38.1111 118.816 38.1427 118.787 38.1753C118.757 38.1774 118.743 38.1938 118.745 38.2243C118.747 38.2548 118.78 38.2986 118.846 38.3554L118.941 38.3949L118.944 38.4407C118.946 38.4713 118.87 38.4918 118.718 38.5023C118.687 38.5044 118.644 38.5381 118.587 38.6034C118.558 38.6361 118.531 38.684 118.504 38.7472C118.45 38.843 118.361 38.8951 118.239 38.9035L118.147 38.9099C118.115 38.8814 118.068 38.8693 118.007 38.8735C117.946 38.8777 117.904 38.942 117.882 39.0662C117.856 39.1294 117.814 39.1937 117.757 39.259C117.729 39.2916 117.684 39.31 117.623 39.3142C117.562 39.3184 117.471 39.34 117.351 39.379C117.26 39.3853 117.168 39.3916 117.076 39.3979L116.893 39.4105C116.71 39.4232 116.586 39.401 116.52 39.3442Z" fill="#870327"/>
</svg>
